<svg width="353" height="69" viewBox="0 0 353 69" fill="none" xmlns="http://www.w3.org/2000/svg">
<g filter="url(#filter0_i_2_85)">
<path d="M284.346 21.025C283.268 14.5148 277.789 9.64182 271.198 9.32935L90.3225 0.755095C83.1597 0.415547 76.8984 5.54306 75.8191 12.6322L70.5406 47.3018C69.2207 55.9713 76.1052 63.7063 84.8693 63.4005L274.252 56.7927C282.696 56.4981 288.957 48.8479 287.575 40.5126L284.346 21.025Z" fill="url(#paint0_linear_2_85)"/>
</g>
<mask id="path-2-outside-1_2_85" maskUnits="userSpaceOnUse" x="143" y="18" width="72" height="27" fill="black">
<rect fill="white" x="143" y="18" width="72" height="27"/>
<path d="M153.029 36.112C152.453 36.112 151.867 36.0907 151.269 36.048C150.672 36.0053 150.032 35.92 149.349 35.792L149.541 31.632C150.011 31.7173 150.544 31.792 151.141 31.856C151.76 31.8987 152.368 31.92 152.965 31.92C153.819 31.92 154.512 31.8027 155.045 31.568C155.579 31.3333 155.973 30.96 156.229 30.448C156.485 29.936 156.613 29.2853 156.613 28.496C156.613 27.408 156.293 26.576 155.653 26C155.013 25.4027 154.085 25.104 152.869 25.104H151.621V42H145.701V20.944H153.573C155.493 20.944 157.136 21.232 158.501 21.808C159.867 22.384 160.912 23.184 161.637 24.208C162.363 25.232 162.725 26.416 162.725 27.76C162.725 28.9973 162.469 30.128 161.957 31.152C161.467 32.1547 160.773 33.0293 159.877 33.776C159.003 34.5013 157.979 35.0773 156.805 35.504C155.632 35.9093 154.373 36.112 153.029 36.112ZM165.626 42V26.864H173.338C175.514 26.864 177.146 27.3013 178.234 28.176C179.343 29.0293 179.898 30.128 179.898 31.472C179.898 32.4533 179.589 33.3813 178.97 34.256C178.373 35.1093 177.498 35.8133 176.346 36.368C175.215 36.9013 173.839 37.168 172.218 37.168H168.57V33.616H172.538C173.221 33.616 173.754 33.4667 174.138 33.168C174.522 32.8693 174.714 32.4747 174.714 31.984C174.714 31.5147 174.533 31.1413 174.17 30.864C173.829 30.5653 173.317 30.416 172.634 30.416H170.778V42H165.626ZM178.714 42.352C177.903 42.352 177.221 42.2453 176.666 42.032C176.111 41.8187 175.61 41.4667 175.162 40.976C174.714 40.4853 174.266 39.824 173.818 38.992L172.346 36.24L176.282 35.056L178.17 37.424C178.533 37.8933 178.842 38.2667 179.098 38.544C179.375 38.8 179.61 38.9813 179.802 39.088C180.015 39.1947 180.229 39.248 180.442 39.248C180.591 39.248 180.73 39.2373 180.858 39.216C181.007 39.1947 181.146 39.1733 181.274 39.152L182.01 41.68C181.519 41.9147 180.986 42.0853 180.41 42.192C179.834 42.2987 179.269 42.352 178.714 42.352ZM184.317 42V26.864H190.237V42H184.317ZM192.357 42L197.669 34.192L192.741 26.864H199.109L201.317 31.472L203.461 26.864H209.701L204.645 34.224L209.957 42H203.493L201.093 37.04L198.757 42H192.357Z"/>
</mask>
<path d="M153.029 36.112C152.453 36.112 151.867 36.0907 151.269 36.048C150.672 36.0053 150.032 35.92 149.349 35.792L149.541 31.632C150.011 31.7173 150.544 31.792 151.141 31.856C151.76 31.8987 152.368 31.92 152.965 31.92C153.819 31.92 154.512 31.8027 155.045 31.568C155.579 31.3333 155.973 30.96 156.229 30.448C156.485 29.936 156.613 29.2853 156.613 28.496C156.613 27.408 156.293 26.576 155.653 26C155.013 25.4027 154.085 25.104 152.869 25.104H151.621V42H145.701V20.944H153.573C155.493 20.944 157.136 21.232 158.501 21.808C159.867 22.384 160.912 23.184 161.637 24.208C162.363 25.232 162.725 26.416 162.725 27.76C162.725 28.9973 162.469 30.128 161.957 31.152C161.467 32.1547 160.773 33.0293 159.877 33.776C159.003 34.5013 157.979 35.0773 156.805 35.504C155.632 35.9093 154.373 36.112 153.029 36.112ZM165.626 42V26.864H173.338C175.514 26.864 177.146 27.3013 178.234 28.176C179.343 29.0293 179.898 30.128 179.898 31.472C179.898 32.4533 179.589 33.3813 178.97 34.256C178.373 35.1093 177.498 35.8133 176.346 36.368C175.215 36.9013 173.839 37.168 172.218 37.168H168.57V33.616H172.538C173.221 33.616 173.754 33.4667 174.138 33.168C174.522 32.8693 174.714 32.4747 174.714 31.984C174.714 31.5147 174.533 31.1413 174.17 30.864C173.829 30.5653 173.317 30.416 172.634 30.416H170.778V42H165.626ZM178.714 42.352C177.903 42.352 177.221 42.2453 176.666 42.032C176.111 41.8187 175.61 41.4667 175.162 40.976C174.714 40.4853 174.266 39.824 173.818 38.992L172.346 36.24L176.282 35.056L178.17 37.424C178.533 37.8933 178.842 38.2667 179.098 38.544C179.375 38.8 179.61 38.9813 179.802 39.088C180.015 39.1947 180.229 39.248 180.442 39.248C180.591 39.248 180.73 39.2373 180.858 39.216C181.007 39.1947 181.146 39.1733 181.274 39.152L182.01 41.68C181.519 41.9147 180.986 42.0853 180.41 42.192C179.834 42.2987 179.269 42.352 178.714 42.352ZM184.317 42V26.864H190.237V42H184.317ZM192.357 42L197.669 34.192L192.741 26.864H199.109L201.317 31.472L203.461 26.864H209.701L204.645 34.224L209.957 42H203.493L201.093 37.04L198.757 42H192.357Z" fill="#FFF9F9"/>
<path d="M151.269 36.048L151.091 38.5416L151.091 38.5416L151.269 36.048ZM149.349 35.792L146.852 35.6767L146.752 37.8485L148.889 38.2492L149.349 35.792ZM149.541 31.632L149.989 29.1723L147.176 28.6609L147.044 31.5167L149.541 31.632ZM151.141 31.856L150.875 34.3418L150.922 34.3468L150.969 34.3501L151.141 31.856ZM155.045 31.568L156.052 33.8563L156.052 33.8563L155.045 31.568ZM156.229 30.448L153.993 29.3299L153.993 29.33L156.229 30.448ZM155.653 26L153.948 27.8276L153.964 27.8431L153.981 27.8582L155.653 26ZM151.621 25.104V22.604H149.121V25.104H151.621ZM151.621 42V44.5H154.121V42H151.621ZM145.701 42H143.201V44.5H145.701V42ZM145.701 20.944V18.444H143.201V20.944H145.701ZM158.501 21.808L159.473 19.5046L159.473 19.5046L158.501 21.808ZM161.637 24.208L163.677 22.7629L163.677 22.7629L161.637 24.208ZM161.957 31.152L159.721 30.034L159.717 30.0435L159.712 30.0531L161.957 31.152ZM159.877 33.776L161.473 35.7004L161.478 35.6965L159.877 33.776ZM156.805 35.504L157.622 37.867L157.641 37.8604L157.66 37.8535L156.805 35.504ZM153.029 33.612C152.515 33.612 151.988 33.5929 151.447 33.5543L151.091 38.5416C151.746 38.5884 152.392 38.612 153.029 38.612V33.612ZM151.447 33.5543C150.959 33.5194 150.414 33.448 149.81 33.3348L148.889 38.2492C149.65 38.392 150.386 38.4912 151.091 38.5416L151.447 33.5543ZM151.847 35.9072L152.039 31.7472L147.044 31.5167L146.852 35.6767L151.847 35.9072ZM149.094 34.0917C149.636 34.1903 150.232 34.2728 150.875 34.3418L151.408 29.3702C150.856 29.3111 150.385 29.2444 149.989 29.1723L149.094 34.0917ZM150.969 34.3501C151.643 34.3965 152.309 34.42 152.965 34.42V29.42C152.428 29.42 151.877 29.4008 151.313 29.3619L150.969 34.3501ZM152.965 34.42C154.018 34.42 155.09 34.2798 156.052 33.8563L154.039 29.2797C153.934 29.3255 153.62 29.42 152.965 29.42V34.42ZM156.052 33.8563C157.109 33.3914 157.944 32.6096 158.465 31.566L153.993 29.33C153.99 29.3364 153.991 29.3338 153.997 29.3255C154.003 29.317 154.012 29.3064 154.023 29.2958C154.035 29.2852 154.044 29.2783 154.049 29.2748C154.054 29.2715 154.052 29.2738 154.039 29.2797L156.052 33.8563ZM158.465 31.566C158.948 30.6009 159.113 29.5345 159.113 28.496H154.113C154.113 29.0361 154.023 29.271 153.993 29.3299L158.465 31.566ZM159.113 28.496C159.113 26.8993 158.625 25.3109 157.326 24.1417L153.981 27.8582C153.997 27.8731 154.016 27.8919 154.04 27.9534C154.069 28.0276 154.113 28.1932 154.113 28.496H159.113ZM157.359 24.1723C156.102 22.9991 154.47 22.604 152.869 22.604V27.604C153.7 27.604 153.925 27.8062 153.948 27.8276L157.359 24.1723ZM152.869 22.604H151.621V27.604H152.869V22.604ZM149.121 25.104V42H154.121V25.104H149.121ZM151.621 39.5H145.701V44.5H151.621V39.5ZM148.201 42V20.944H143.201V42H148.201ZM145.701 23.444H153.573V18.444H145.701V23.444ZM153.573 23.444C155.254 23.444 156.548 23.6974 157.53 24.1114L159.473 19.5046C157.724 18.7666 155.733 18.444 153.573 18.444V23.444ZM157.53 24.1114C158.544 24.5395 159.187 25.0731 159.597 25.653L163.677 22.7629C162.638 21.2948 161.189 20.2284 159.473 19.5046L157.53 24.1114ZM159.597 25.653C160.002 26.224 160.225 26.8948 160.225 27.76H165.225C165.225 25.9371 164.724 24.24 163.677 22.7629L159.597 25.653ZM160.225 27.76C160.225 28.6412 160.046 29.3846 159.721 30.034L164.193 32.27C164.893 30.8714 165.225 29.3534 165.225 27.76H160.225ZM159.712 30.0531C159.383 30.7253 158.915 31.3238 158.277 31.8554L161.478 35.6965C162.632 34.7348 163.551 33.584 164.203 32.2509L159.712 30.0531ZM158.282 31.8516C157.649 32.3765 156.881 32.8163 155.951 33.1545L157.66 37.8535C159.076 37.3384 160.357 36.6261 161.473 35.7004L158.282 31.8516ZM155.989 33.141C155.099 33.4484 154.119 33.612 153.029 33.612V38.612C154.628 38.612 156.165 38.3702 157.622 37.867L155.989 33.141ZM165.626 42H163.126V44.5H165.626V42ZM165.626 26.864V24.364H163.126V26.864H165.626ZM178.234 28.176L176.668 30.1244L176.689 30.1412L176.71 30.1575L178.234 28.176ZM178.97 34.256L176.929 32.8123L176.922 32.8223L178.97 34.256ZM176.346 36.368L177.413 38.6291L177.422 38.6248L177.431 38.6205L176.346 36.368ZM168.57 37.168H166.07V39.668H168.57V37.168ZM168.57 33.616V31.116H166.07V33.616H168.57ZM174.17 30.864L172.524 32.7454L172.586 32.7998L172.651 32.8499L174.17 30.864ZM170.778 30.416V27.916H168.278V30.416H170.778ZM170.778 42V44.5H173.278V42H170.778ZM176.666 42.032L175.769 44.3653L175.769 44.3653L176.666 42.032ZM175.162 40.976L173.316 42.6617L173.316 42.6617L175.162 40.976ZM173.818 38.992L171.614 40.1711L171.617 40.1772L173.818 38.992ZM172.346 36.24L171.626 33.846L168.701 34.7258L170.142 37.4191L172.346 36.24ZM176.282 35.056L178.237 33.4975L177.182 32.1746L175.562 32.662L176.282 35.056ZM178.17 37.424L180.148 35.8954L180.137 35.8803L180.125 35.8655L178.17 37.424ZM179.098 38.544L177.261 40.2397L177.329 40.3132L177.402 40.381L179.098 38.544ZM179.802 39.088L178.588 41.2734L178.636 41.2998L178.684 41.3241L179.802 39.088ZM180.858 39.216L180.505 36.7411L180.476 36.7452L180.447 36.75L180.858 39.216ZM181.274 39.152L183.674 38.4532L183.054 36.3209L180.863 36.686L181.274 39.152ZM182.01 41.68L183.089 43.9353L185.004 43.0194L184.41 40.9812L182.01 41.68ZM180.41 42.192L179.955 39.7338L179.955 39.7338L180.41 42.192ZM168.126 42V26.864H163.126V42H168.126ZM165.626 29.364H173.338V24.364H165.626V29.364ZM173.338 29.364C175.245 29.364 176.212 29.758 176.668 30.1244L179.801 26.2275C178.08 24.8447 175.783 24.364 173.338 24.364V29.364ZM176.71 30.1575C177.234 30.5605 177.398 30.9408 177.398 31.472H182.398C182.398 29.3151 181.453 27.4982 179.758 26.1944L176.71 30.1575ZM177.398 31.472C177.398 31.8885 177.278 32.3191 176.929 32.8123L181.011 35.6996C181.9 34.4435 182.398 33.0181 182.398 31.472H177.398ZM176.922 32.8223C176.62 33.2532 176.115 33.7048 175.262 34.1155L177.431 38.6205C178.882 37.9219 180.125 36.9655 181.018 35.6896L176.922 32.8223ZM175.28 34.1069C174.566 34.4435 173.576 34.668 172.218 34.668V39.668C174.103 39.668 175.865 39.3592 177.413 38.6291L175.28 34.1069ZM172.218 34.668H168.57V39.668H172.218V34.668ZM171.07 37.168V33.616H166.07V37.168H171.07ZM168.57 36.116H172.538V31.116H168.57V36.116ZM172.538 36.116C173.557 36.116 174.704 35.8953 175.673 35.1414L172.603 31.1946C172.65 31.1583 172.692 31.1335 172.725 31.1176C172.757 31.1019 172.776 31.0966 172.776 31.0966C172.776 31.0966 172.775 31.0969 172.773 31.0975C172.77 31.098 172.767 31.0988 172.762 31.0998C172.752 31.1017 172.737 31.1042 172.717 31.1066C172.677 31.1116 172.618 31.116 172.538 31.116V36.116ZM175.673 35.1414C176.672 34.3643 177.214 33.2383 177.214 31.984H172.214C172.214 31.8955 172.234 31.7361 172.322 31.5543C172.411 31.3719 172.526 31.2543 172.603 31.1946L175.673 35.1414ZM177.214 31.984C177.214 30.7615 176.69 29.6437 175.689 28.8781L172.651 32.8499C172.555 32.7758 172.426 32.6423 172.329 32.4442C172.234 32.2484 172.214 32.078 172.214 31.984H177.214ZM175.816 28.9825C174.837 28.1258 173.626 27.916 172.634 27.916V32.916C172.801 32.916 172.855 32.9352 172.83 32.928C172.798 32.9185 172.671 32.8743 172.524 32.7454L175.816 28.9825ZM172.634 27.916H170.778V32.916H172.634V27.916ZM168.278 30.416V42H173.278V30.416H168.278ZM170.778 39.5H165.626V44.5H170.778V39.5ZM178.714 39.852C178.106 39.852 177.748 39.7697 177.564 39.6986L175.769 44.3653C176.693 44.7209 177.701 44.852 178.714 44.852V39.852ZM177.564 39.6986C177.412 39.6403 177.226 39.5286 177.008 39.2903L173.316 42.6617C173.994 43.4047 174.811 43.997 175.769 44.3653L177.564 39.6986ZM177.008 39.2903C176.743 39 176.407 38.5273 176.019 37.8067L171.617 40.1772C172.125 41.1207 172.685 41.9706 173.316 42.6617L177.008 39.2903ZM176.023 37.8129L174.551 35.0609L170.142 37.4191L171.614 40.1711L176.023 37.8129ZM173.066 38.634L177.002 37.45L175.562 32.662L171.626 33.846L173.066 38.634ZM174.327 36.6145L176.215 38.9825L180.125 35.8655L178.237 33.4975L174.327 36.6145ZM176.192 38.9526C176.577 39.4511 176.936 39.8875 177.261 40.2397L180.935 36.8483C180.748 36.6458 180.488 36.3355 180.148 35.8954L176.192 38.9526ZM177.402 40.381C177.738 40.6903 178.142 41.0254 178.588 41.2734L181.016 36.9026C181.061 36.9272 181.061 36.9323 181.011 36.8938C180.964 36.8578 180.893 36.7981 180.794 36.707L177.402 40.381ZM178.684 41.3241C179.203 41.5836 179.797 41.748 180.442 41.748V36.748C180.661 36.748 180.828 36.8057 180.92 36.8519L178.684 41.3241ZM180.442 41.748C180.709 41.748 180.987 41.729 181.269 41.682L180.447 36.75C180.461 36.7477 180.467 36.7473 180.466 36.7473C180.465 36.7474 180.457 36.748 180.442 36.748V41.748ZM181.212 41.6909C181.377 41.6672 181.535 41.6429 181.685 41.618L180.863 36.686C180.757 36.7037 180.638 36.7221 180.505 36.7411L181.212 41.6909ZM178.874 39.8508L179.61 42.3788L184.41 40.9812L183.674 38.4532L178.874 39.8508ZM180.931 39.4246C180.653 39.5576 180.332 39.664 179.955 39.7338L180.865 44.6502C181.641 44.5066 182.385 44.2717 183.089 43.9353L180.931 39.4246ZM179.955 39.7338C179.521 39.8142 179.108 39.852 178.714 39.852V44.852C179.43 44.852 180.148 44.7831 180.865 44.6502L179.955 39.7338ZM184.317 42H181.817V44.5H184.317V42ZM184.317 26.864V24.364H181.817V26.864H184.317ZM190.237 26.864H192.737V24.364H190.237V26.864ZM190.237 42V44.5H192.737V42H190.237ZM186.817 42V26.864H181.817V42H186.817ZM184.317 29.364H190.237V24.364H184.317V29.364ZM187.737 26.864V42H192.737V26.864H187.737ZM190.237 39.5H184.317V44.5H190.237V39.5ZM192.357 42L190.29 40.5937L187.633 44.5H192.357V42ZM197.669 34.192L199.736 35.5982L200.687 34.2001L199.744 32.7969L197.669 34.192ZM192.741 26.864V24.364H188.047L190.667 28.2591L192.741 26.864ZM199.109 26.864L201.364 25.7837L200.683 24.364H199.109V26.864ZM201.317 31.472L199.063 32.5523L201.35 37.3268L203.584 32.5266L201.317 31.472ZM203.461 26.864V24.364H201.867L201.194 25.8094L203.461 26.864ZM209.701 26.864L211.762 28.2795L214.452 24.364H209.701V26.864ZM204.645 34.224L202.584 32.8084L201.615 34.22L202.581 35.6342L204.645 34.224ZM209.957 42V44.5H214.693L212.021 40.5898L209.957 42ZM203.493 42L201.243 43.0889L201.926 44.5H203.493V42ZM201.093 37.04L203.344 35.9511L201.063 31.2373L198.831 35.9748L201.093 37.04ZM198.757 42V44.5H200.343L201.019 43.0652L198.757 42ZM194.424 43.4062L199.736 35.5982L195.602 32.7857L190.29 40.5937L194.424 43.4062ZM199.744 32.7969L194.816 25.4689L190.667 28.2591L195.595 35.5871L199.744 32.7969ZM192.741 29.364H199.109V24.364H192.741V29.364ZM196.855 27.9443L199.063 32.5523L203.572 30.3917L201.364 25.7837L196.855 27.9443ZM203.584 32.5266L205.728 27.9186L201.194 25.8094L199.05 30.4174L203.584 32.5266ZM203.461 29.364H209.701V24.364H203.461V29.364ZM207.64 25.4484L202.584 32.8084L206.706 35.6395L211.762 28.2795L207.64 25.4484ZM202.581 35.6342L207.893 43.4102L212.021 40.5898L206.709 32.8138L202.581 35.6342ZM209.957 39.5H203.493V44.5H209.957V39.5ZM205.744 40.9111L203.344 35.9511L198.843 38.1289L201.243 43.0889L205.744 40.9111ZM198.831 35.9748L196.495 40.9348L201.019 43.0652L203.355 38.1052L198.831 35.9748ZM198.757 39.5H192.357V44.5H198.757V39.5Z" fill="#CE6828" mask="url(#path-2-outside-1_2_85)"/>
<defs>
<filter id="filter0_i_2_85" x="70.3779" y="-3.26083" width="219.389" height="66.6701" filterUnits="userSpaceOnUse" color-interpolation-filters="sRGB">
<feFlood flood-opacity="0" result="BackgroundImageFix"/>
<feBlend mode="normal" in="SourceGraphic" in2="BackgroundImageFix" result="shape"/>
<feColorMatrix in="SourceAlpha" type="matrix" values="0 0 0 0 0 0 0 0 0 0 0 0 0 0 0 0 0 0 127 0" result="hardAlpha"/>
<feOffset dx="2" dy="-4"/>
<feGaussianBlur stdDeviation="2"/>
<feComposite in2="hardAlpha" operator="arithmetic" k2="-1" k3="1"/>
<feColorMatrix type="matrix" values="0 0 0 0 0 0 0 0 0 0 0 0 0 0 0 0 0 0 0.25 0"/>
<feBlend mode="plus-darker" in2="shape" result="effect1_innerShadow_2_85"/>
</filter>
<linearGradient id="paint0_linear_2_85" x1="181.003" y1="2.06436" x2="185.58" y2="65.4855" gradientUnits="userSpaceOnUse">
<stop stop-color="#FE9554"/>
<stop offset="1" stop-color="#C97F51"/>
</linearGradient>
</defs>
</svg>
