<svg width="353" height="70" viewBox="0 0 353 70" fill="none" xmlns="http://www.w3.org/2000/svg">
<g filter="url(#filter0_i_2_117)">
<path d="M280.775 21.9817C279.696 15.4714 274.217 10.5984 267.626 10.286L86.7508 1.71171C79.588 1.37217 73.3266 6.49968 72.2473 13.5888L66.9689 48.2584C65.649 56.928 72.5335 64.6629 81.2976 64.3571L270.68 57.7493C279.124 57.4547 285.385 49.8045 284.004 41.4693L280.775 21.9817Z" fill="url(#paint0_linear_2_117)"/>
</g>
<mask id="path-2-outside-1_2_117" maskUnits="userSpaceOnUse" x="82" y="15" width="188" height="29" fill="black">
<rect fill="white" x="82" y="15" width="188" height="29"/>
<path d="M95.668 34.4C95.668 33.952 95.4973 33.5787 95.156 33.28C94.836 32.9813 94.3987 32.7147 93.844 32.48C93.3107 32.224 92.7133 31.9787 92.052 31.744C91.412 31.488 90.7613 31.2 90.1 30.88C89.46 30.56 88.8627 30.1653 88.308 29.696C87.7747 29.2053 87.3373 28.608 86.996 27.904C86.676 27.2 86.516 26.336 86.516 25.312C86.516 23.8827 86.8467 22.656 87.508 21.632C88.1907 20.608 89.14 19.8187 90.356 19.264C91.572 18.688 92.9907 18.4 94.612 18.4C95.5293 18.4 96.5533 18.5067 97.684 18.72C98.8147 18.912 99.828 19.2107 100.724 19.616L98.772 24.448C97.94 23.8933 97.108 23.4667 96.276 23.168C95.444 22.8693 94.676 22.72 93.972 22.72C93.4813 22.72 93.0867 22.8053 92.788 22.976C92.5107 23.1253 92.2973 23.328 92.148 23.584C92.02 23.8187 91.956 24.064 91.956 24.32C91.956 24.7467 92.116 25.12 92.436 25.44C92.7773 25.7387 93.2147 26.0053 93.748 26.24C94.3027 26.4747 94.9107 26.72 95.572 26.976C96.2333 27.232 96.8947 27.5307 97.556 27.872C98.2173 28.2133 98.8147 28.6293 99.348 29.12C99.9027 29.5893 100.34 30.176 100.66 30.88C101.001 31.584 101.172 32.4373 101.172 33.44C101.172 35.0187 100.777 36.3413 99.988 37.408C99.1987 38.4533 98.1533 39.2427 96.852 39.776C95.5507 40.288 94.1427 40.544 92.628 40.544C91.22 40.544 89.9293 40.3627 88.756 40C87.5827 39.616 86.548 39.1893 85.652 38.72L87.508 33.888C88.5107 34.528 89.5347 35.0613 90.58 35.488C91.6253 35.9147 92.6067 36.128 93.524 36.128C94.228 36.128 94.7613 35.968 95.124 35.648C95.4867 35.3067 95.668 34.8907 95.668 34.4ZM111.915 40.32C110.187 40.32 108.683 39.9893 107.403 39.328C106.144 38.6667 105.163 37.76 104.459 36.608C103.776 35.4347 103.435 34.0907 103.435 32.576C103.435 31.0187 103.797 29.6427 104.523 28.448C105.248 27.232 106.261 26.2827 107.563 25.6C108.885 24.896 110.411 24.544 112.139 24.544C113.355 24.544 114.464 24.704 115.467 25.024C116.469 25.344 117.323 25.792 118.027 26.368L115.339 29.984C114.869 29.4293 114.4 29.024 113.931 28.768C113.483 28.512 112.992 28.384 112.459 28.384C111.883 28.384 111.381 28.5333 110.955 28.832C110.549 29.1093 110.229 29.536 109.995 30.112C109.781 30.6667 109.675 31.3493 109.675 32.16C109.675 33.0133 109.803 33.7493 110.059 34.368C110.336 34.9653 110.741 35.424 111.275 35.744C111.829 36.064 112.533 36.224 113.387 36.224C113.941 36.224 114.453 36.1493 114.923 36C115.392 35.8507 115.797 35.6587 116.139 35.424L117.963 38.464C117.237 39.04 116.363 39.4987 115.339 39.84C114.315 40.16 113.173 40.32 111.915 40.32ZM128.291 40.32C126.605 40.32 125.123 39.9893 123.843 39.328C122.563 38.6667 121.56 37.76 120.835 36.608C120.131 35.456 119.779 34.1333 119.779 32.64C119.779 31.0613 120.141 29.664 120.867 28.448C121.613 27.232 122.659 26.2827 124.003 25.6C125.347 24.896 126.904 24.544 128.675 24.544C130.36 24.544 131.843 24.8747 133.123 25.536C134.403 26.176 135.395 27.0827 136.099 28.256C136.824 29.4293 137.187 30.784 137.187 32.32C137.187 33.92 136.803 35.3173 136.035 36.512C135.288 37.7067 134.243 38.6453 132.899 39.328C131.576 39.9893 130.04 40.32 128.291 40.32ZM128.611 36.448C129.123 36.448 129.549 36.32 129.891 36.064C130.253 35.7867 130.52 35.3707 130.691 34.816C130.861 34.24 130.947 33.504 130.947 32.608C130.947 31.648 130.851 30.8587 130.659 30.24C130.467 29.6213 130.179 29.1627 129.795 28.864C129.411 28.544 128.931 28.384 128.355 28.384C127.843 28.384 127.416 28.5227 127.075 28.8C126.733 29.056 126.467 29.472 126.275 30.048C126.104 30.6027 126.019 31.328 126.019 32.224C126.019 33.184 126.115 33.984 126.307 34.624C126.52 35.2427 126.819 35.7013 127.203 36C127.587 36.2987 128.056 36.448 128.611 36.448ZM140.454 40V24.864H148.166C150.342 24.864 151.974 25.3013 153.062 26.176C154.172 27.0293 154.726 28.128 154.726 29.472C154.726 30.4533 154.417 31.3813 153.798 32.256C153.201 33.1093 152.326 33.8133 151.174 34.368C150.044 34.9013 148.668 35.168 147.046 35.168H143.398V31.616H147.366C148.049 31.616 148.582 31.4667 148.966 31.168C149.35 30.8693 149.542 30.4747 149.542 29.984C149.542 29.5147 149.361 29.1413 148.998 28.864C148.657 28.5653 148.145 28.416 147.462 28.416H145.606V40H140.454ZM153.542 40.352C152.732 40.352 152.049 40.2453 151.494 40.032C150.94 39.8187 150.438 39.4667 149.99 38.976C149.542 38.4853 149.094 37.824 148.646 36.992L147.174 34.24L151.11 33.056L152.998 35.424C153.361 35.8933 153.67 36.2667 153.926 36.544C154.204 36.8 154.438 36.9813 154.63 37.088C154.844 37.1947 155.057 37.248 155.27 37.248C155.42 37.248 155.558 37.2373 155.686 37.216C155.836 37.1947 155.974 37.1733 156.102 37.152L156.838 39.68C156.348 39.9147 155.814 40.0853 155.238 40.192C154.662 40.2987 154.097 40.352 153.542 40.352ZM158.986 40V24.864H164.362V40H158.986ZM161.098 40V36.48H171.658V40H161.098ZM161.098 34.24V30.688H169.962V34.24H161.098ZM161.098 28.48V24.864H171.242V28.48H161.098ZM183.533 30.176L183.757 27.584C185.336 27.584 186.744 27.8293 187.981 28.32C189.24 28.7893 190.221 29.472 190.925 30.368C191.629 31.2427 191.981 32.3093 191.981 33.568C191.981 34.784 191.629 35.8827 190.925 36.864C190.221 37.8453 189.229 38.6133 187.949 39.168C186.691 39.7227 185.187 40 183.437 40H175.373V18.944H183.917C185.176 18.944 186.307 19.1467 187.309 19.552C188.333 19.936 189.133 20.5013 189.709 21.248C190.307 21.9733 190.605 22.8373 190.605 23.84C190.605 24.8 190.403 25.6747 189.997 26.464C189.592 27.232 189.048 27.904 188.365 28.48C187.683 29.0347 186.925 29.4613 186.093 29.76C185.261 30.0373 184.408 30.176 183.533 30.176ZM179.437 27.232H183.213C183.939 27.232 184.504 27.04 184.909 26.656C185.336 26.272 185.549 25.7387 185.549 25.056C185.549 24.5227 185.368 24.032 185.005 23.584C184.664 23.1147 183.992 22.88 182.989 22.88H180.653V35.872H183.405C184.301 35.872 184.963 35.68 185.389 35.296C185.816 34.8907 186.029 34.3147 186.029 33.568C186.029 32.8427 185.795 32.2667 185.325 31.84C184.877 31.4133 184.131 31.2 183.085 31.2H179.437V27.232ZM202.884 40.32C201.199 40.32 199.716 39.9893 198.436 39.328C197.156 38.6667 196.154 37.76 195.428 36.608C194.724 35.456 194.372 34.1333 194.372 32.64C194.372 31.0613 194.735 29.664 195.46 28.448C196.207 27.232 197.252 26.2827 198.596 25.6C199.94 24.896 201.498 24.544 203.268 24.544C204.954 24.544 206.436 24.8747 207.716 25.536C208.996 26.176 209.988 27.0827 210.692 28.256C211.418 29.4293 211.78 30.784 211.78 32.32C211.78 33.92 211.396 35.3173 210.628 36.512C209.882 37.7067 208.836 38.6453 207.492 39.328C206.17 39.9893 204.634 40.32 202.884 40.32ZM203.204 36.448C203.716 36.448 204.143 36.32 204.484 36.064C204.847 35.7867 205.114 35.3707 205.284 34.816C205.455 34.24 205.54 33.504 205.54 32.608C205.54 31.648 205.444 30.8587 205.252 30.24C205.06 29.6213 204.772 29.1627 204.388 28.864C204.004 28.544 203.524 28.384 202.948 28.384C202.436 28.384 202.01 28.5227 201.668 28.8C201.327 29.056 201.06 29.472 200.868 30.048C200.698 30.6027 200.612 31.328 200.612 32.224C200.612 33.184 200.708 33.984 200.9 34.624C201.114 35.2427 201.412 35.7013 201.796 36C202.18 36.2987 202.65 36.448 203.204 36.448ZM213.197 40L218.573 24.864H225.517L230.893 40H224.941L221.165 25.984H222.285L218.701 40H213.197ZM216.749 36.896L218.061 33.312H225.613L227.181 36.896H216.749ZM233.392 40V24.864H241.104C243.28 24.864 244.912 25.3013 246 26.176C247.109 27.0293 247.664 28.128 247.664 29.472C247.664 30.4533 247.354 31.3813 246.736 32.256C246.138 33.1093 245.264 33.8133 244.112 34.368C242.981 34.9013 241.605 35.168 239.984 35.168H236.336V31.616H240.304C240.986 31.616 241.52 31.4667 241.904 31.168C242.288 30.8693 242.48 30.4747 242.48 29.984C242.48 29.5147 242.298 29.1413 241.936 28.864C241.594 28.5653 241.082 28.416 240.4 28.416H238.544V40H233.392ZM246.48 40.352C245.669 40.352 244.986 40.2453 244.432 40.032C243.877 39.8187 243.376 39.4667 242.928 38.976C242.48 38.4853 242.032 37.824 241.584 36.992L240.112 34.24L244.048 33.056L245.936 35.424C246.298 35.8933 246.608 36.2667 246.864 36.544C247.141 36.8 247.376 36.9813 247.568 37.088C247.781 37.1947 247.994 37.248 248.208 37.248C248.357 37.248 248.496 37.2373 248.624 37.216C248.773 37.1947 248.912 37.1733 249.04 37.152L249.776 39.68C249.285 39.9147 248.752 40.0853 248.176 40.192C247.6 40.2987 247.034 40.352 246.48 40.352ZM257.683 40H251.923V24.864H258.067C259.923 24.864 261.534 25.1627 262.899 25.76C264.286 26.336 265.352 27.1787 266.099 28.288C266.867 29.376 267.251 30.6987 267.251 32.256C267.251 33.8133 266.856 35.1787 266.067 36.352C265.299 37.504 264.2 38.4 262.771 39.04C261.342 39.68 259.646 40 257.683 40ZM261.427 32.576C261.427 31.7867 261.299 31.104 261.043 30.528C260.808 29.952 260.435 29.5147 259.923 29.216C259.432 28.9173 258.792 28.768 258.003 28.768H257.267V36.096H258.259C258.984 36.096 259.582 35.968 260.051 35.712C260.52 35.4347 260.862 35.0293 261.075 34.496C261.31 33.9627 261.427 33.3227 261.427 32.576Z"/>
</mask>
<path d="M95.668 34.4C95.668 33.952 95.4973 33.5787 95.156 33.28C94.836 32.9813 94.3987 32.7147 93.844 32.48C93.3107 32.224 92.7133 31.9787 92.052 31.744C91.412 31.488 90.7613 31.2 90.1 30.88C89.46 30.56 88.8627 30.1653 88.308 29.696C87.7747 29.2053 87.3373 28.608 86.996 27.904C86.676 27.2 86.516 26.336 86.516 25.312C86.516 23.8827 86.8467 22.656 87.508 21.632C88.1907 20.608 89.14 19.8187 90.356 19.264C91.572 18.688 92.9907 18.4 94.612 18.4C95.5293 18.4 96.5533 18.5067 97.684 18.72C98.8147 18.912 99.828 19.2107 100.724 19.616L98.772 24.448C97.94 23.8933 97.108 23.4667 96.276 23.168C95.444 22.8693 94.676 22.72 93.972 22.72C93.4813 22.72 93.0867 22.8053 92.788 22.976C92.5107 23.1253 92.2973 23.328 92.148 23.584C92.02 23.8187 91.956 24.064 91.956 24.32C91.956 24.7467 92.116 25.12 92.436 25.44C92.7773 25.7387 93.2147 26.0053 93.748 26.24C94.3027 26.4747 94.9107 26.72 95.572 26.976C96.2333 27.232 96.8947 27.5307 97.556 27.872C98.2173 28.2133 98.8147 28.6293 99.348 29.12C99.9027 29.5893 100.34 30.176 100.66 30.88C101.001 31.584 101.172 32.4373 101.172 33.44C101.172 35.0187 100.777 36.3413 99.988 37.408C99.1987 38.4533 98.1533 39.2427 96.852 39.776C95.5507 40.288 94.1427 40.544 92.628 40.544C91.22 40.544 89.9293 40.3627 88.756 40C87.5827 39.616 86.548 39.1893 85.652 38.72L87.508 33.888C88.5107 34.528 89.5347 35.0613 90.58 35.488C91.6253 35.9147 92.6067 36.128 93.524 36.128C94.228 36.128 94.7613 35.968 95.124 35.648C95.4867 35.3067 95.668 34.8907 95.668 34.4ZM111.915 40.32C110.187 40.32 108.683 39.9893 107.403 39.328C106.144 38.6667 105.163 37.76 104.459 36.608C103.776 35.4347 103.435 34.0907 103.435 32.576C103.435 31.0187 103.797 29.6427 104.523 28.448C105.248 27.232 106.261 26.2827 107.563 25.6C108.885 24.896 110.411 24.544 112.139 24.544C113.355 24.544 114.464 24.704 115.467 25.024C116.469 25.344 117.323 25.792 118.027 26.368L115.339 29.984C114.869 29.4293 114.4 29.024 113.931 28.768C113.483 28.512 112.992 28.384 112.459 28.384C111.883 28.384 111.381 28.5333 110.955 28.832C110.549 29.1093 110.229 29.536 109.995 30.112C109.781 30.6667 109.675 31.3493 109.675 32.16C109.675 33.0133 109.803 33.7493 110.059 34.368C110.336 34.9653 110.741 35.424 111.275 35.744C111.829 36.064 112.533 36.224 113.387 36.224C113.941 36.224 114.453 36.1493 114.923 36C115.392 35.8507 115.797 35.6587 116.139 35.424L117.963 38.464C117.237 39.04 116.363 39.4987 115.339 39.84C114.315 40.16 113.173 40.32 111.915 40.32ZM128.291 40.32C126.605 40.32 125.123 39.9893 123.843 39.328C122.563 38.6667 121.56 37.76 120.835 36.608C120.131 35.456 119.779 34.1333 119.779 32.64C119.779 31.0613 120.141 29.664 120.867 28.448C121.613 27.232 122.659 26.2827 124.003 25.6C125.347 24.896 126.904 24.544 128.675 24.544C130.36 24.544 131.843 24.8747 133.123 25.536C134.403 26.176 135.395 27.0827 136.099 28.256C136.824 29.4293 137.187 30.784 137.187 32.32C137.187 33.92 136.803 35.3173 136.035 36.512C135.288 37.7067 134.243 38.6453 132.899 39.328C131.576 39.9893 130.04 40.32 128.291 40.32ZM128.611 36.448C129.123 36.448 129.549 36.32 129.891 36.064C130.253 35.7867 130.52 35.3707 130.691 34.816C130.861 34.24 130.947 33.504 130.947 32.608C130.947 31.648 130.851 30.8587 130.659 30.24C130.467 29.6213 130.179 29.1627 129.795 28.864C129.411 28.544 128.931 28.384 128.355 28.384C127.843 28.384 127.416 28.5227 127.075 28.8C126.733 29.056 126.467 29.472 126.275 30.048C126.104 30.6027 126.019 31.328 126.019 32.224C126.019 33.184 126.115 33.984 126.307 34.624C126.52 35.2427 126.819 35.7013 127.203 36C127.587 36.2987 128.056 36.448 128.611 36.448ZM140.454 40V24.864H148.166C150.342 24.864 151.974 25.3013 153.062 26.176C154.172 27.0293 154.726 28.128 154.726 29.472C154.726 30.4533 154.417 31.3813 153.798 32.256C153.201 33.1093 152.326 33.8133 151.174 34.368C150.044 34.9013 148.668 35.168 147.046 35.168H143.398V31.616H147.366C148.049 31.616 148.582 31.4667 148.966 31.168C149.35 30.8693 149.542 30.4747 149.542 29.984C149.542 29.5147 149.361 29.1413 148.998 28.864C148.657 28.5653 148.145 28.416 147.462 28.416H145.606V40H140.454ZM153.542 40.352C152.732 40.352 152.049 40.2453 151.494 40.032C150.94 39.8187 150.438 39.4667 149.99 38.976C149.542 38.4853 149.094 37.824 148.646 36.992L147.174 34.24L151.11 33.056L152.998 35.424C153.361 35.8933 153.67 36.2667 153.926 36.544C154.204 36.8 154.438 36.9813 154.63 37.088C154.844 37.1947 155.057 37.248 155.27 37.248C155.42 37.248 155.558 37.2373 155.686 37.216C155.836 37.1947 155.974 37.1733 156.102 37.152L156.838 39.68C156.348 39.9147 155.814 40.0853 155.238 40.192C154.662 40.2987 154.097 40.352 153.542 40.352ZM158.986 40V24.864H164.362V40H158.986ZM161.098 40V36.48H171.658V40H161.098ZM161.098 34.24V30.688H169.962V34.24H161.098ZM161.098 28.48V24.864H171.242V28.48H161.098ZM183.533 30.176L183.757 27.584C185.336 27.584 186.744 27.8293 187.981 28.32C189.24 28.7893 190.221 29.472 190.925 30.368C191.629 31.2427 191.981 32.3093 191.981 33.568C191.981 34.784 191.629 35.8827 190.925 36.864C190.221 37.8453 189.229 38.6133 187.949 39.168C186.691 39.7227 185.187 40 183.437 40H175.373V18.944H183.917C185.176 18.944 186.307 19.1467 187.309 19.552C188.333 19.936 189.133 20.5013 189.709 21.248C190.307 21.9733 190.605 22.8373 190.605 23.84C190.605 24.8 190.403 25.6747 189.997 26.464C189.592 27.232 189.048 27.904 188.365 28.48C187.683 29.0347 186.925 29.4613 186.093 29.76C185.261 30.0373 184.408 30.176 183.533 30.176ZM179.437 27.232H183.213C183.939 27.232 184.504 27.04 184.909 26.656C185.336 26.272 185.549 25.7387 185.549 25.056C185.549 24.5227 185.368 24.032 185.005 23.584C184.664 23.1147 183.992 22.88 182.989 22.88H180.653V35.872H183.405C184.301 35.872 184.963 35.68 185.389 35.296C185.816 34.8907 186.029 34.3147 186.029 33.568C186.029 32.8427 185.795 32.2667 185.325 31.84C184.877 31.4133 184.131 31.2 183.085 31.2H179.437V27.232ZM202.884 40.32C201.199 40.32 199.716 39.9893 198.436 39.328C197.156 38.6667 196.154 37.76 195.428 36.608C194.724 35.456 194.372 34.1333 194.372 32.64C194.372 31.0613 194.735 29.664 195.46 28.448C196.207 27.232 197.252 26.2827 198.596 25.6C199.94 24.896 201.498 24.544 203.268 24.544C204.954 24.544 206.436 24.8747 207.716 25.536C208.996 26.176 209.988 27.0827 210.692 28.256C211.418 29.4293 211.78 30.784 211.78 32.32C211.78 33.92 211.396 35.3173 210.628 36.512C209.882 37.7067 208.836 38.6453 207.492 39.328C206.17 39.9893 204.634 40.32 202.884 40.32ZM203.204 36.448C203.716 36.448 204.143 36.32 204.484 36.064C204.847 35.7867 205.114 35.3707 205.284 34.816C205.455 34.24 205.54 33.504 205.54 32.608C205.54 31.648 205.444 30.8587 205.252 30.24C205.06 29.6213 204.772 29.1627 204.388 28.864C204.004 28.544 203.524 28.384 202.948 28.384C202.436 28.384 202.01 28.5227 201.668 28.8C201.327 29.056 201.06 29.472 200.868 30.048C200.698 30.6027 200.612 31.328 200.612 32.224C200.612 33.184 200.708 33.984 200.9 34.624C201.114 35.2427 201.412 35.7013 201.796 36C202.18 36.2987 202.65 36.448 203.204 36.448ZM213.197 40L218.573 24.864H225.517L230.893 40H224.941L221.165 25.984H222.285L218.701 40H213.197ZM216.749 36.896L218.061 33.312H225.613L227.181 36.896H216.749ZM233.392 40V24.864H241.104C243.28 24.864 244.912 25.3013 246 26.176C247.109 27.0293 247.664 28.128 247.664 29.472C247.664 30.4533 247.354 31.3813 246.736 32.256C246.138 33.1093 245.264 33.8133 244.112 34.368C242.981 34.9013 241.605 35.168 239.984 35.168H236.336V31.616H240.304C240.986 31.616 241.52 31.4667 241.904 31.168C242.288 30.8693 242.48 30.4747 242.48 29.984C242.48 29.5147 242.298 29.1413 241.936 28.864C241.594 28.5653 241.082 28.416 240.4 28.416H238.544V40H233.392ZM246.48 40.352C245.669 40.352 244.986 40.2453 244.432 40.032C243.877 39.8187 243.376 39.4667 242.928 38.976C242.48 38.4853 242.032 37.824 241.584 36.992L240.112 34.24L244.048 33.056L245.936 35.424C246.298 35.8933 246.608 36.2667 246.864 36.544C247.141 36.8 247.376 36.9813 247.568 37.088C247.781 37.1947 247.994 37.248 248.208 37.248C248.357 37.248 248.496 37.2373 248.624 37.216C248.773 37.1947 248.912 37.1733 249.04 37.152L249.776 39.68C249.285 39.9147 248.752 40.0853 248.176 40.192C247.6 40.2987 247.034 40.352 246.48 40.352ZM257.683 40H251.923V24.864H258.067C259.923 24.864 261.534 25.1627 262.899 25.76C264.286 26.336 265.352 27.1787 266.099 28.288C266.867 29.376 267.251 30.6987 267.251 32.256C267.251 33.8133 266.856 35.1787 266.067 36.352C265.299 37.504 264.2 38.4 262.771 39.04C261.342 39.68 259.646 40 257.683 40ZM261.427 32.576C261.427 31.7867 261.299 31.104 261.043 30.528C260.808 29.952 260.435 29.5147 259.923 29.216C259.432 28.9173 258.792 28.768 258.003 28.768H257.267V36.096H258.259C258.984 36.096 259.582 35.968 260.051 35.712C260.52 35.4347 260.862 35.0293 261.075 34.496C261.31 33.9627 261.427 33.3227 261.427 32.576Z" fill="#FFF9F9"/>
<path d="M95.156 33.28L93.4502 35.1076L93.4795 35.135L93.5097 35.1614L95.156 33.28ZM93.844 32.48L92.7622 34.7338L92.8155 34.7594L92.8699 34.7824L93.844 32.48ZM92.052 31.744L91.1235 34.0652L91.1694 34.0835L91.216 34.1001L92.052 31.744ZM90.1 30.88L88.982 33.1161L88.9965 33.1233L89.0111 33.1304L90.1 30.88ZM88.308 29.696L86.6154 31.5358L86.6535 31.571L86.6931 31.6045L88.308 29.696ZM86.996 27.904L84.7201 28.9385L84.7329 28.9668L84.7465 28.9947L86.996 27.904ZM87.508 21.632L85.4279 20.2453L85.4178 20.2604L85.4079 20.2757L87.508 21.632ZM90.356 19.264L91.3935 21.5385L91.4099 21.5311L91.4262 21.5233L90.356 19.264ZM97.684 18.72L97.2205 21.1767L97.2429 21.1809L97.2655 21.1847L97.684 18.72ZM100.724 19.616L103.042 20.5524L103.941 18.3273L101.754 17.3382L100.724 19.616ZM98.772 24.448L97.3853 26.5281L99.9399 28.2313L101.09 25.3844L98.772 24.448ZM96.276 23.168L97.1207 20.815L96.276 23.168ZM92.788 22.976L93.9732 25.1772L94.001 25.1622L94.0284 25.1466L92.788 22.976ZM92.148 23.584L89.9885 22.3243L89.9705 22.3553L89.9533 22.3869L92.148 23.584ZM92.436 25.44L90.6682 27.2078L90.7271 27.2666L90.7897 27.3214L92.436 25.44ZM93.748 26.24L92.7411 28.5283L92.7575 28.5355L92.7739 28.5424L93.748 26.24ZM95.572 26.976L94.6695 29.3074L94.6695 29.3074L95.572 26.976ZM97.556 27.872L98.7026 25.6504L97.556 27.872ZM99.348 29.12L97.6554 30.9598L97.6935 30.995L97.7331 31.0285L99.348 29.12ZM100.66 30.88L98.3841 31.9145L98.3969 31.9428L98.4105 31.9707L100.66 30.88ZM99.988 37.408L101.983 38.9145L101.99 38.9048L101.998 38.8951L99.988 37.408ZM96.852 39.776L97.7673 42.1024L97.7837 42.096L97.8001 42.0893L96.852 39.776ZM88.756 40L87.9784 42.376L87.998 42.3824L88.0177 42.3885L88.756 40ZM85.652 38.72L83.3182 37.8236L82.52 39.9017L84.492 40.9346L85.652 38.72ZM87.508 33.888L88.8531 31.7807L86.2721 30.1333L85.1742 32.9916L87.508 33.888ZM90.58 35.488L89.6353 37.8026L89.6353 37.8026L90.58 35.488ZM95.124 35.648L96.7781 37.5226L96.8082 37.496L96.8374 37.4685L95.124 35.648ZM98.168 34.4C98.168 33.2209 97.6784 32.1652 96.8023 31.3986L93.5097 35.1614C93.4422 35.1023 93.3429 34.991 93.2663 34.8234C93.1893 34.655 93.168 34.5015 93.168 34.4H98.168ZM96.8618 31.4524C96.2637 30.8942 95.5483 30.4865 94.8181 30.1776L92.8699 34.7824C93.249 34.9428 93.4083 35.0685 93.4502 35.1076L96.8618 31.4524ZM94.9258 30.2262C94.2994 29.9255 93.6182 29.647 92.888 29.3879L91.216 34.1001C91.8085 34.3103 92.322 34.5225 92.7622 34.7338L94.9258 30.2262ZM92.9805 29.4228C92.3982 29.1899 91.801 28.9258 91.1889 28.6296L89.0111 33.1304C89.7216 33.4742 90.4258 33.7861 91.1235 34.0652L92.9805 29.4228ZM91.218 28.6439C90.7588 28.4143 90.3279 28.1303 89.9229 27.7875L86.6931 31.6045C87.3974 32.2004 88.1612 32.7057 88.982 33.1161L91.218 28.6439ZM90.0006 27.8562C89.7161 27.5944 89.4609 27.2575 89.2455 26.8133L84.7465 28.9947C85.2138 29.9585 85.8332 30.8162 86.6154 31.5358L90.0006 27.8562ZM89.2719 26.8695C89.1392 26.5776 89.016 26.0893 89.016 25.312H84.016C84.016 26.5827 84.2128 27.8224 84.7201 28.9385L89.2719 26.8695ZM89.016 25.312C89.016 24.2792 89.2502 23.5425 89.6081 22.9883L85.4079 20.2757C84.4431 21.7695 84.016 23.4861 84.016 25.312H89.016ZM89.5881 23.0187C89.9906 22.4151 90.5631 21.9173 91.3935 21.5385L89.3185 16.9895C87.7169 17.72 86.3908 18.8009 85.4279 20.2453L89.5881 23.0187ZM91.4262 21.5233C92.2462 21.1349 93.2861 20.9 94.612 20.9V15.9C92.6952 15.9 90.8978 16.241 89.2858 17.0047L91.4262 21.5233ZM94.612 20.9C95.3405 20.9 96.206 20.9852 97.2205 21.1767L98.1475 16.2633C96.9007 16.0281 95.7182 15.9 94.612 15.9V20.9ZM97.2655 21.1847C98.2191 21.3466 99.0218 21.5899 99.6936 21.8938L101.754 17.3382C100.634 16.8314 99.4103 16.4774 98.1025 16.2553L97.2655 21.1847ZM98.406 18.6796L96.454 23.5116L101.09 25.3844L103.042 20.5524L98.406 18.6796ZM100.159 22.3679C99.1795 21.715 98.1668 21.1906 97.1207 20.815L95.4313 25.521C96.0492 25.7428 96.7005 26.0716 97.3853 26.5281L100.159 22.3679ZM97.1207 20.815C96.084 20.4429 95.0269 20.22 93.972 20.22V25.22C94.3251 25.22 94.804 25.2958 95.4313 25.521L97.1207 20.815ZM93.972 20.22C93.2212 20.22 92.3514 20.3461 91.5477 20.8054L94.0284 25.1466C93.921 25.2079 93.8466 25.2253 93.8363 25.2275C93.8277 25.2294 93.8678 25.22 93.972 25.22V20.22ZM91.6028 20.7748C90.9467 21.1281 90.3845 21.6456 89.9885 22.3243L94.3074 24.8437C94.264 24.9182 94.2077 24.99 94.1419 25.0525C94.0768 25.1143 94.0162 25.154 93.9732 25.1772L91.6028 20.7748ZM89.9533 22.3869C89.6341 22.9719 89.456 23.627 89.456 24.32H94.456C94.456 24.4029 94.4453 24.4897 94.423 24.5751C94.4009 24.6599 94.371 24.7293 94.3427 24.7811L89.9533 22.3869ZM89.456 24.32C89.456 25.4531 89.911 26.4505 90.6682 27.2078L94.2038 23.6722C94.243 23.7115 94.315 23.798 94.3739 23.9352C94.4339 24.0753 94.456 24.2122 94.456 24.32H89.456ZM90.7897 27.3214C91.3678 27.8272 92.0379 28.2189 92.7411 28.5283L94.7548 23.9517C94.3914 23.7918 94.1869 23.6501 94.0823 23.5586L90.7897 27.3214ZM92.7739 28.5424C93.356 28.7887 93.9882 29.0437 94.6695 29.3074L96.4745 24.6446C95.8331 24.3963 95.2493 24.1606 94.7221 23.9376L92.7739 28.5424ZM94.6695 29.3074C95.2436 29.5296 95.8235 29.7912 96.4094 30.0936L98.7026 25.6504C97.9658 25.2702 97.2231 24.9344 96.4745 24.6446L94.6695 29.3074ZM96.4094 30.0936C96.8779 30.3353 97.2906 30.6242 97.6554 30.9598L101.041 27.2802C100.339 26.6344 99.5568 26.0913 98.7026 25.6504L96.4094 30.0936ZM97.7331 31.0285C97.9876 31.2437 98.207 31.525 98.3841 31.9145L102.936 29.8455C102.473 28.827 101.818 27.9349 100.963 27.2115L97.7331 31.0285ZM98.4105 31.9707C98.5473 32.2529 98.672 32.7123 98.672 33.44H103.672C103.672 32.1624 103.455 30.9151 102.91 29.7893L98.4105 31.9707ZM98.672 33.44C98.672 34.5878 98.3922 35.3617 97.9784 35.9209L101.998 38.8951C103.162 37.321 103.672 35.4495 103.672 33.44H98.672ZM97.9929 35.9015C97.4938 36.5625 96.8219 37.0865 95.9039 37.4627L97.8001 42.0893C99.4848 41.3988 100.904 40.3442 101.983 38.9145L97.9929 35.9015ZM95.9367 37.4496C94.9503 37.8377 93.8556 38.044 92.628 38.044V43.044C94.4298 43.044 96.151 42.7383 97.7673 42.1024L95.9367 37.4496ZM92.628 38.044C91.4344 38.044 90.3964 37.8903 89.4943 37.6115L88.0177 42.3885C89.4622 42.835 91.0056 43.044 92.628 43.044V38.044ZM89.5336 37.624C88.4644 37.2741 87.5619 36.8982 86.812 36.5054L84.492 40.9346C85.5341 41.4804 86.701 41.9579 87.9784 42.376L89.5336 37.624ZM87.9858 39.6164L89.8418 34.7844L85.1742 32.9916L83.3182 37.8236L87.9858 39.6164ZM86.1629 35.9953C87.2858 36.712 88.4433 37.3161 89.6353 37.8026L91.5247 33.1734C90.6261 32.8066 89.7356 32.344 88.8531 31.7807L86.1629 35.9953ZM89.6353 37.8026C90.9134 38.3243 92.2173 38.628 93.524 38.628V33.628C92.996 33.628 92.3373 33.505 91.5247 33.1734L89.6353 37.8026ZM93.524 38.628C94.5647 38.628 95.789 38.3953 96.7781 37.5226L93.4699 33.7734C93.531 33.7195 93.5901 33.6808 93.6395 33.6543C93.688 33.6283 93.722 33.6169 93.7336 33.6134C93.7448 33.6101 93.7352 33.614 93.6994 33.6186C93.6635 33.6233 93.6062 33.628 93.524 33.628V38.628ZM96.8374 37.4685C97.6935 36.6628 98.168 35.5916 98.168 34.4H93.168C93.168 34.3298 93.1827 34.2131 93.2403 34.081C93.2974 33.9498 93.3697 33.866 93.4106 33.8275L96.8374 37.4685ZM107.403 39.328L106.24 41.5411L106.248 41.5451L106.255 41.5491L107.403 39.328ZM104.459 36.608L102.298 37.8652L102.311 37.8886L102.326 37.9116L104.459 36.608ZM104.523 28.448L106.66 29.7454L106.665 29.7371L106.67 29.7287L104.523 28.448ZM107.563 25.6L108.724 27.8139L108.731 27.8104L108.737 27.8069L107.563 25.6ZM115.467 25.024L116.227 22.6424L115.467 25.024ZM118.027 26.368L120.033 27.8595L121.457 25.9443L119.61 24.4331L118.027 26.368ZM115.339 29.984L113.43 31.5989L115.465 34.0041L117.345 31.4755L115.339 29.984ZM113.931 28.768L112.69 30.9386L112.712 30.9509L112.734 30.9627L113.931 28.768ZM110.955 28.832L112.366 30.8953L112.377 30.8877L112.388 30.8801L110.955 28.832ZM109.995 30.112L107.68 29.1688L107.67 29.1916L107.661 29.2146L109.995 30.112ZM110.059 34.368L107.749 35.3239L107.769 35.3728L107.791 35.4208L110.059 34.368ZM111.275 35.744L109.989 37.8877L110.007 37.8988L110.025 37.9095L111.275 35.744ZM114.923 36L114.165 33.6177L114.923 36ZM116.139 35.424L118.282 34.1378L116.914 31.8571L114.722 33.3639L116.139 35.424ZM117.963 38.464L119.517 40.4218L121.235 39.0581L120.106 37.1778L117.963 38.464ZM115.339 39.84L116.084 42.2262L116.107 42.2192L116.129 42.2117L115.339 39.84ZM111.915 37.82C110.507 37.82 109.411 37.5519 108.55 37.1069L106.255 41.5491C107.954 42.4268 109.866 42.82 111.915 42.82V37.82ZM108.566 37.1149C107.684 36.6519 107.048 36.0504 106.592 35.3044L102.326 37.9116C103.278 39.4696 104.604 40.6814 106.24 41.5411L108.566 37.1149ZM106.62 35.3508C106.184 34.602 105.935 33.7013 105.935 32.576H100.935C100.935 34.48 101.368 36.2673 102.298 37.8652L106.62 35.3508ZM105.935 32.576C105.935 31.4225 106.198 30.5055 106.66 29.7454L102.386 27.1506C101.397 28.7799 100.935 30.6149 100.935 32.576H105.935ZM106.67 29.7287C107.15 28.9241 107.815 28.2908 108.724 27.8139L106.401 23.3861C104.708 24.2745 103.346 25.5399 102.376 27.1673L106.67 29.7287ZM108.737 27.8069C109.646 27.323 110.757 27.044 112.139 27.044V22.044C110.064 22.044 108.124 22.469 106.388 23.3931L108.737 27.8069ZM112.139 27.044C113.136 27.044 113.984 27.1752 114.707 27.4056L116.227 22.6424C114.944 22.2328 113.573 22.044 112.139 22.044V27.044ZM114.707 27.4056C115.456 27.6447 116.019 27.9551 116.444 28.3029L119.61 24.4331C118.627 23.6289 117.483 23.0433 116.227 22.6424L114.707 27.4056ZM116.02 24.8765L113.332 28.4925L117.345 31.4755L120.033 27.8595L116.02 24.8765ZM117.247 28.3691C116.646 27.6581 115.946 27.0196 115.128 26.5733L112.734 30.9627C112.854 31.0284 113.093 31.2006 113.43 31.5989L117.247 28.3691ZM115.171 26.5974C114.332 26.1181 113.412 25.884 112.459 25.884V30.884C112.572 30.884 112.633 30.9059 112.69 30.9386L115.171 26.5974ZM112.459 25.884C111.427 25.884 110.412 26.1601 109.521 26.7839L112.388 30.8801C112.386 30.8815 112.382 30.8844 112.376 30.8874C112.369 30.8904 112.365 30.8917 112.364 30.892C112.361 30.8929 112.388 30.884 112.459 30.884V25.884ZM109.543 26.7687C108.638 27.3881 108.05 28.2594 107.68 29.1688L112.31 31.0552C112.36 30.9336 112.398 30.8764 112.411 30.86C112.421 30.8466 112.408 30.8669 112.366 30.8953L109.543 26.7687ZM107.661 29.2146C107.306 30.1391 107.175 31.1469 107.175 32.16H112.175C112.175 31.5518 112.257 31.1942 112.328 31.0094L107.661 29.2146ZM107.175 32.16C107.175 33.2549 107.338 34.3314 107.749 35.3239L112.369 33.4121C112.267 33.1673 112.175 32.7717 112.175 32.16H107.175ZM107.791 35.4208C108.266 36.4436 109 37.2949 109.989 37.8877L112.561 33.6003C112.482 33.5531 112.406 33.4871 112.326 33.3152L107.791 35.4208ZM110.025 37.9095C111.066 38.5097 112.236 38.724 113.387 38.724V33.724C112.831 33.724 112.593 33.6183 112.524 33.5785L110.025 37.9095ZM113.387 38.724C114.167 38.724 114.938 38.6188 115.681 38.3823L114.165 33.6177C113.969 33.6799 113.716 33.724 113.387 33.724V38.724ZM115.681 38.3823C116.341 38.1721 116.977 37.8813 117.555 37.4841L114.722 33.3639C114.618 33.436 114.443 33.5292 114.165 33.6177L115.681 38.3823ZM113.995 36.7102L115.819 39.7502L120.106 37.1778L118.282 34.1378L113.995 36.7102ZM116.408 36.5062C115.946 36.8734 115.34 37.2043 114.548 37.4683L116.129 42.2117C117.385 41.793 118.529 41.2066 119.517 40.4218L116.408 36.5062ZM114.593 37.4538C113.848 37.6866 112.963 37.82 111.915 37.82V42.82C113.384 42.82 114.781 42.6334 116.084 42.2262L114.593 37.4538ZM123.842 39.328L124.99 37.1069L123.842 39.328ZM120.835 36.608L118.701 37.9116L118.71 37.9259L118.719 37.94L120.835 36.608ZM120.867 28.448L118.736 27.1398L118.728 27.1535L118.719 27.1673L120.867 28.448ZM124.003 25.6L125.135 27.8289L125.149 27.8218L125.163 27.8146L124.003 25.6ZM133.122 25.536L131.975 27.7571L131.99 27.7647L132.004 27.7721L133.122 25.536ZM136.098 28.256L133.955 29.5422L133.963 29.5565L133.972 29.5706L136.098 28.256ZM136.035 36.512L133.932 35.1601L133.923 35.1735L133.915 35.187L136.035 36.512ZM132.898 39.328L134.017 41.5641L134.024 41.5605L134.031 41.5569L132.898 39.328ZM129.891 36.064L131.391 38.064L131.4 38.057L131.409 38.0499L129.891 36.064ZM130.691 34.816L133.08 35.5512L133.084 35.5387L133.087 35.5262L130.691 34.816ZM130.659 30.24L128.271 30.981V30.981L130.659 30.24ZM129.794 28.864L128.194 30.7846L128.226 30.8115L128.26 30.8374L129.794 28.864ZM127.075 28.8L128.574 30.8L128.613 30.7709L128.651 30.7403L127.075 28.8ZM126.274 30.048L123.903 29.2574L123.894 29.285L123.885 29.3128L126.274 30.048ZM126.307 34.624L123.912 35.3424L123.927 35.391L123.943 35.439L126.307 34.624ZM127.202 36L125.668 37.9734L127.202 36ZM128.29 37.82C126.937 37.82 125.86 37.5562 124.99 37.1069L122.695 41.5491C124.385 42.4225 126.274 42.82 128.29 42.82V37.82ZM124.99 37.1069C124.082 36.6379 123.424 36.0283 122.95 35.276L118.719 37.94C119.696 39.4917 121.043 40.6954 122.695 41.5491L124.99 37.1069ZM122.968 35.3044C122.529 34.5857 122.279 33.7236 122.279 32.64H117.279C117.279 34.543 117.732 36.3263 118.701 37.9116L122.968 35.3044ZM122.279 32.64C122.279 31.4591 122.545 30.5142 123.014 29.7287L118.719 27.1673C117.737 28.8138 117.279 30.6636 117.279 32.64H122.279ZM122.997 29.7562C123.488 28.9559 124.178 28.315 125.135 27.8289L122.87 23.3711C121.139 24.2503 119.738 25.5081 118.736 27.1398L122.997 29.7562ZM125.163 27.8146C126.093 27.3271 127.24 27.044 128.674 27.044V22.044C126.567 22.044 124.6 22.4649 122.842 23.3854L125.163 27.8146ZM128.674 27.044C130.028 27.044 131.105 27.3078 131.975 27.7571L134.27 23.3149C132.58 22.4415 130.691 22.044 128.674 22.044V27.044ZM132.004 27.7721C132.88 28.2097 133.507 28.7958 133.955 29.5422L138.242 26.9698C137.282 25.3695 135.925 24.1423 134.241 23.2999L132.004 27.7721ZM133.972 29.5706C134.426 30.3051 134.686 31.1941 134.686 32.32H139.686C139.686 30.3739 139.222 28.5535 138.225 26.9414L133.972 29.5706ZM134.686 32.32C134.686 33.5032 134.408 34.4182 133.932 35.1601L138.137 37.8639C139.197 36.2164 139.686 34.3368 139.686 32.32H134.686ZM133.915 35.187C133.426 35.969 132.734 36.6073 131.766 37.0991L134.031 41.5569C135.751 40.6834 137.15 39.4443 138.154 37.837L133.915 35.187ZM131.78 37.0919C130.863 37.5507 129.722 37.82 128.29 37.82V42.82C130.357 42.82 132.289 42.428 134.017 41.5641L131.78 37.0919ZM128.611 38.948C129.552 38.948 130.535 38.7055 131.391 38.064L128.391 34.064C128.465 34.0078 128.54 33.9742 128.596 33.9574C128.648 33.942 128.659 33.948 128.611 33.948V38.948ZM131.409 38.0499C132.285 37.3801 132.798 36.4679 133.08 35.5512L128.301 34.0808C128.271 34.1782 128.25 34.2074 128.258 34.1948C128.262 34.188 128.273 34.1717 128.293 34.1497C128.314 34.1275 128.34 34.1027 128.372 34.0781L131.409 38.0499ZM133.087 35.5262C133.351 34.6364 133.447 33.6386 133.447 32.608H128.447C128.447 33.3694 128.371 33.8436 128.294 34.1058L133.087 35.5262ZM133.447 32.608C133.447 31.5056 133.339 30.4432 133.046 29.499L128.271 30.981C128.362 31.2742 128.447 31.7904 128.447 32.608H133.447ZM133.046 29.499C132.752 28.5515 132.231 27.5921 131.329 26.8906L128.26 30.8374C128.197 30.7886 128.175 30.7512 128.181 30.7614C128.19 30.7755 128.227 30.8396 128.271 30.981L133.046 29.499ZM131.395 26.9434C130.494 26.193 129.421 25.884 128.355 25.884V30.884C128.41 30.884 128.403 30.8915 128.356 30.8757C128.333 30.868 128.305 30.8562 128.274 30.8394C128.244 30.8225 128.217 30.8036 128.194 30.7846L131.395 26.9434ZM128.355 25.884C127.367 25.884 126.356 26.1625 125.498 26.8597L128.651 30.7403C128.578 30.7995 128.496 30.8418 128.423 30.8656C128.355 30.8879 128.324 30.884 128.355 30.884V25.884ZM125.575 26.8C124.687 27.4653 124.19 28.3952 123.903 29.2574L128.646 30.8386C128.668 30.7731 128.687 30.7263 128.702 30.6952C128.716 30.6641 128.724 30.6516 128.723 30.6532C128.721 30.6574 128.677 30.723 128.574 30.8L125.575 26.8ZM123.885 29.3128C123.613 30.1981 123.519 31.1987 123.519 32.224H128.518C128.518 31.4573 128.595 31.0072 128.664 30.7832L123.885 29.3128ZM123.519 32.224C123.519 33.3308 123.627 34.3921 123.912 35.3424L128.701 33.9056C128.602 33.5759 128.518 33.0372 128.518 32.224H123.519ZM123.943 35.439C124.261 36.3617 124.79 37.2906 125.668 37.9734L128.737 34.0266C128.847 34.112 128.778 34.1236 128.67 33.809L123.943 35.439ZM125.668 37.9734C126.551 38.6604 127.582 38.948 128.611 38.948V33.948C128.558 33.948 128.561 33.9412 128.601 33.9537C128.619 33.9597 128.643 33.969 128.669 33.9825C128.694 33.996 128.718 34.0112 128.737 34.0266L125.668 37.9734ZM140.454 40H137.954V42.5H140.454V40ZM140.454 24.864V22.364H137.954V24.864H140.454ZM153.062 26.176L151.496 28.1244L151.517 28.1412L151.538 28.1576L153.062 26.176ZM153.798 32.256L151.757 30.8123L151.75 30.8223L153.798 32.256ZM151.174 34.368L152.241 36.6291L152.25 36.6248L152.259 36.6205L151.174 34.368ZM143.398 35.168H140.898V37.668H143.398V35.168ZM143.398 31.616V29.116H140.898V31.616H143.398ZM148.998 28.864L147.352 30.7454L147.414 30.7998L147.48 30.8499L148.998 28.864ZM145.606 28.416V25.916H143.106V28.416H145.606ZM145.606 40V42.5H148.106V40H145.606ZM151.494 40.032L150.597 42.3654L151.494 40.032ZM149.99 38.976L148.144 40.6617L149.99 38.976ZM148.646 36.992L146.442 38.1711L146.445 38.1772L148.646 36.992ZM147.174 34.24L146.454 31.846L143.529 32.7258L144.97 35.4191L147.174 34.24ZM151.11 33.056L153.065 31.4975L152.01 30.1746L150.39 30.662L151.11 33.056ZM152.998 35.424L154.976 33.8954L154.965 33.8803L154.953 33.8655L152.998 35.424ZM153.926 36.544L152.089 38.2397L152.157 38.3132L152.231 38.381L153.926 36.544ZM154.63 37.088L153.416 39.2734L153.464 39.2998L153.512 39.3241L154.63 37.088ZM155.686 37.216L155.333 34.7411L155.304 34.7452L155.275 34.75L155.686 37.216ZM156.102 37.152L158.503 36.4532L157.882 34.3209L155.691 34.686L156.102 37.152ZM156.838 39.68L157.917 41.9353L159.832 41.0194L159.239 38.9812L156.838 39.68ZM155.238 40.192L154.783 37.7338L155.238 40.192ZM142.954 40V24.864H137.954V40H142.954ZM140.454 27.364H148.166V22.364H140.454V27.364ZM148.166 27.364C150.073 27.364 151.04 27.758 151.496 28.1244L154.629 24.2276C152.908 22.8447 150.612 22.364 148.166 22.364V27.364ZM151.538 28.1576C152.062 28.5605 152.226 28.9409 152.226 29.472H157.226C157.226 27.3151 156.281 25.4982 154.587 24.1944L151.538 28.1576ZM152.226 29.472C152.226 29.8885 152.106 30.3192 151.757 30.8123L155.839 33.6997C156.728 32.4435 157.226 31.0181 157.226 29.472H152.226ZM151.75 30.8223C151.449 31.2532 150.943 31.7048 150.09 32.1155L152.259 36.6205C153.71 35.9219 154.953 34.9655 155.846 33.6897L151.75 30.8223ZM150.108 32.1069C149.394 32.4435 148.404 32.668 147.046 32.668V37.668C148.931 37.668 150.693 37.3592 152.241 36.6291L150.108 32.1069ZM147.046 32.668H143.398V37.668H147.046V32.668ZM145.898 35.168V31.616H140.898V35.168H145.898ZM143.398 34.116H147.366V29.116H143.398V34.116ZM147.366 34.116C148.385 34.116 149.532 33.8953 150.501 33.1414L147.431 29.1946C147.478 29.1583 147.52 29.1335 147.553 29.1176C147.585 29.1019 147.604 29.0966 147.604 29.0966C147.604 29.0966 147.603 29.0969 147.601 29.0975C147.598 29.098 147.595 29.0988 147.59 29.0998C147.58 29.1017 147.565 29.1042 147.546 29.1066C147.505 29.1116 147.446 29.116 147.366 29.116V34.116ZM150.501 33.1414C151.5 32.3643 152.042 31.2383 152.042 29.984H147.042C147.042 29.8955 147.062 29.7361 147.15 29.5543C147.239 29.3719 147.355 29.2543 147.431 29.1946L150.501 33.1414ZM152.042 29.984C152.042 28.7615 151.518 27.6437 150.517 26.8781L147.48 30.8499C147.383 30.7758 147.254 30.6423 147.157 30.4443C147.062 30.2484 147.042 30.078 147.042 29.984H152.042ZM150.645 26.9826C149.665 26.1258 148.454 25.916 147.462 25.916V30.916C147.629 30.916 147.683 30.9352 147.658 30.928C147.626 30.9185 147.499 30.8743 147.352 30.7454L150.645 26.9826ZM147.462 25.916H145.606V30.916H147.462V25.916ZM143.106 28.416V40H148.106V28.416H143.106ZM145.606 37.5H140.454V42.5H145.606V37.5ZM153.542 37.852C152.934 37.852 152.576 37.7697 152.392 37.6986L150.597 42.3654C151.521 42.721 152.529 42.852 153.542 42.852V37.852ZM152.392 37.6986C152.24 37.6404 152.054 37.5286 151.836 37.2903L148.144 40.6617C148.823 41.4048 149.639 41.997 150.597 42.3654L152.392 37.6986ZM151.836 37.2903C151.571 37 151.235 36.5273 150.847 35.8068L146.445 38.1772C146.953 39.1207 147.513 39.9706 148.144 40.6617L151.836 37.2903ZM150.851 35.8129L149.379 33.0609L144.97 35.4191L146.442 38.1711L150.851 35.8129ZM147.894 36.634L151.83 35.45L150.39 30.662L146.454 31.846L147.894 36.634ZM149.156 34.6145L151.044 36.9825L154.953 33.8655L153.065 31.4975L149.156 34.6145ZM151.02 36.9526C151.405 37.4511 151.764 37.8876 152.089 38.2397L155.763 34.8483C155.576 34.6458 155.317 34.3355 154.976 33.8954L151.02 36.9526ZM152.231 38.381C152.566 38.6904 152.97 39.0254 153.416 39.2734L155.844 34.9026C155.889 34.9272 155.889 34.9323 155.839 34.8938C155.792 34.8578 155.721 34.7981 155.622 34.707L152.231 38.381ZM153.512 39.3241C154.031 39.5836 154.625 39.748 155.27 39.748V34.748C155.489 34.748 155.656 34.8057 155.748 34.8519L153.512 39.3241ZM155.27 39.748C155.537 39.748 155.815 39.729 156.097 39.682L155.275 34.75C155.289 34.7477 155.296 34.7473 155.295 34.7474C155.293 34.7474 155.286 34.748 155.27 34.748V39.748ZM156.04 39.6909C156.205 39.6672 156.363 39.643 156.513 39.618L155.691 34.686C155.585 34.7037 155.466 34.7221 155.333 34.7411L156.04 39.6909ZM153.702 37.8508L154.438 40.3788L159.239 38.9812L158.503 36.4532L153.702 37.8508ZM155.76 37.4247C155.482 37.5577 155.16 37.664 154.783 37.7338L155.693 42.6502C156.469 42.5066 157.214 42.2717 157.917 41.9353L155.76 37.4247ZM154.783 37.7338C154.349 37.8142 153.936 37.852 153.542 37.852V42.852C154.258 42.852 154.976 42.7831 155.693 42.6502L154.783 37.7338ZM158.986 40H156.486V42.5H158.986V40ZM158.986 24.864V22.364H156.486V24.864H158.986ZM164.361 24.864H166.861V22.364H164.361V24.864ZM164.361 40V42.5H166.861V40H164.361ZM161.098 40H158.598V42.5H161.098V40ZM161.098 36.48V33.98H158.598V36.48H161.098ZM171.658 36.48H174.158V33.98H171.658V36.48ZM171.658 40V42.5H174.158V40H171.658ZM161.098 34.24H158.598V36.74H161.098V34.24ZM161.098 30.688V28.188H158.598V30.688H161.098ZM169.962 30.688H172.462V28.188H169.962V30.688ZM169.962 34.24V36.74H172.462V34.24H169.962ZM161.098 28.48H158.598V30.98H161.098V28.48ZM161.098 24.864V22.364H158.598V24.864H161.098ZM171.242 24.864H173.742V22.364H171.242V24.864ZM171.242 28.48V30.98H173.742V28.48H171.242ZM161.486 40V24.864H156.486V40H161.486ZM158.986 27.364H164.361V22.364H158.986V27.364ZM161.861 24.864V40H166.861V24.864H161.861ZM164.361 37.5H158.986V42.5H164.361V37.5ZM163.598 40V36.48H158.598V40H163.598ZM161.098 38.98H171.658V33.98H161.098V38.98ZM169.158 36.48V40H174.158V36.48H169.158ZM171.658 37.5H161.098V42.5H171.658V37.5ZM163.598 34.24V30.688H158.598V34.24H163.598ZM161.098 33.188H169.962V28.188H161.098V33.188ZM167.462 30.688V34.24H172.462V30.688H167.462ZM169.962 31.74H161.098V36.74H169.962V31.74ZM163.598 28.48V24.864H158.598V28.48H163.598ZM161.098 27.364H171.242V22.364H161.098V27.364ZM168.742 24.864V28.48H173.742V24.864H168.742ZM171.242 25.98H161.098V30.98H171.242V25.98ZM183.533 30.176L181.043 29.9608L180.808 32.676H183.533V30.176ZM183.757 27.584V25.084H181.464L181.267 27.3688L183.757 27.584ZM187.981 28.32L187.06 30.6439L187.084 30.6534L187.108 30.6625L187.981 28.32ZM190.925 30.368L188.959 31.9126L188.969 31.9241L188.978 31.9355L190.925 30.368ZM187.949 39.168L186.955 36.8741L186.948 36.8772L186.941 36.8803L187.949 39.168ZM175.373 40H172.873V42.5H175.373V40ZM175.373 18.944V16.444H172.873V18.944H175.373ZM187.309 19.552L186.372 21.8698L186.402 21.8817L186.431 21.8928L187.309 19.552ZM189.709 21.248L187.73 22.775L187.754 22.8065L187.779 22.8373L189.709 21.248ZM189.997 26.464L192.208 27.6309L192.215 27.6185L192.221 27.606L189.997 26.464ZM188.365 28.48L189.942 30.4203L189.96 30.4057L189.977 30.3907L188.365 28.48ZM186.093 29.76L186.884 32.1317L186.911 32.1227L186.938 32.113L186.093 29.76ZM179.437 27.232V24.732H176.937V27.232H179.437ZM184.909 26.656L183.237 24.7978L183.213 24.8191L183.19 24.8411L184.909 26.656ZM185.005 23.584L182.983 25.0544L183.021 25.1067L183.062 25.157L185.005 23.584ZM180.653 22.88V20.38H178.153V22.88H180.653ZM180.653 35.872H178.153V38.372H180.653V35.872ZM185.389 35.296L187.062 37.1542L187.087 37.1317L187.111 37.1085L185.389 35.296ZM185.325 31.84L183.601 33.6503L183.622 33.6703L183.644 33.6898L185.325 31.84ZM179.437 31.2H176.937V33.7H179.437V31.2ZM186.024 30.3912L186.248 27.7992L181.267 27.3688L181.043 29.9608L186.024 30.3912ZM183.757 30.084C185.078 30.084 186.165 30.2891 187.06 30.6439L188.903 25.9961C187.323 25.3696 185.594 25.084 183.757 25.084V30.084ZM187.108 30.6625C188.014 31.0003 188.587 31.4381 188.959 31.9126L192.891 28.8234C191.856 27.5059 190.466 26.5784 188.855 25.9775L187.108 30.6625ZM188.978 31.9355C189.281 32.3122 189.481 32.8065 189.481 33.568H194.481C194.481 31.8122 193.978 30.1731 192.873 28.8005L188.978 31.9355ZM189.481 33.568C189.481 34.265 189.291 34.8533 188.894 35.4067L192.957 38.3213C193.968 36.912 194.481 35.303 194.481 33.568H189.481ZM188.894 35.4067C188.492 35.9666 187.886 36.471 186.955 36.8741L188.943 41.4619C190.573 40.7557 191.95 39.7241 192.957 38.3213L188.894 35.4067ZM186.941 36.8803C186.074 37.2624 184.93 37.5 183.437 37.5V42.5C185.443 42.5 187.307 42.1829 188.957 41.4557L186.941 36.8803ZM183.437 37.5H175.373V42.5H183.437V37.5ZM177.873 40V18.944H172.873V40H177.873ZM175.373 21.444H183.917V16.444H175.373V21.444ZM183.917 21.444C184.907 21.444 185.712 21.6028 186.372 21.8698L188.246 17.2342C186.901 16.6905 185.445 16.444 183.917 16.444V21.444ZM186.431 21.8928C187.09 22.14 187.481 22.4525 187.73 22.775L191.689 19.721C190.785 18.5501 189.576 17.732 188.187 17.2112L186.431 21.8928ZM187.779 22.8373C187.982 23.0837 188.105 23.3753 188.105 23.84H193.105C193.105 22.2994 192.631 20.863 191.639 19.6587L187.779 22.8373ZM188.105 23.84C188.105 24.4361 187.983 24.9144 187.773 25.322L192.221 27.606C192.823 26.4349 193.105 25.1639 193.105 23.84H188.105ZM187.786 25.2971C187.535 25.7728 187.197 26.1944 186.753 26.5693L189.977 30.3907C190.898 29.6136 191.649 28.6912 192.208 27.6309L187.786 25.2971ZM186.789 26.5397C186.326 26.9156 185.816 27.2032 185.249 27.407L186.938 32.113C188.034 31.7195 189.039 31.1537 189.942 30.4203L186.789 26.5397ZM185.303 27.3883C184.725 27.5809 184.138 27.676 183.533 27.676V32.676C184.677 32.676 185.798 32.4938 186.884 32.1317L185.303 27.3883ZM179.437 29.732H183.213V24.732H179.437V29.732ZM183.213 29.732C184.38 29.732 185.633 29.4142 186.629 28.4709L183.19 24.8411C183.225 24.8079 183.263 24.7799 183.299 24.758C183.336 24.7365 183.364 24.7254 183.377 24.7208C183.402 24.7123 183.359 24.732 183.213 24.732V29.732ZM186.582 28.5142C187.635 27.5663 188.049 26.3009 188.049 25.056H183.049C183.049 25.138 183.037 25.1182 183.068 25.0395C183.084 25.0006 183.107 24.9555 183.139 24.9095C183.171 24.8636 183.205 24.8261 183.237 24.7978L186.582 28.5142ZM188.049 25.056C188.049 23.9024 187.64 22.8656 186.948 22.011L183.062 25.157C183.089 25.1905 183.081 25.1898 183.068 25.1546C183.062 25.1383 183.057 25.1196 183.054 25.0999C183.05 25.0804 183.049 25.0651 183.049 25.056H188.049ZM187.027 22.1136C185.958 20.6442 184.221 20.38 182.989 20.38V25.38C183.145 25.38 183.257 25.3892 183.332 25.3998C183.408 25.4105 183.434 25.4206 183.421 25.4162C183.407 25.4115 183.346 25.3883 183.261 25.3291C183.172 25.2677 183.073 25.1772 182.983 25.0544L187.027 22.1136ZM182.989 20.38H180.653V25.38H182.989V20.38ZM178.153 22.88V35.872H183.153V22.88H178.153ZM180.653 38.372H183.405V33.372H180.653V38.372ZM183.405 38.372C184.587 38.372 185.978 38.1296 187.062 37.1542L183.717 33.4378C183.834 33.3323 183.916 33.3155 183.876 33.3271C183.828 33.3411 183.684 33.372 183.405 33.372V38.372ZM187.111 37.1085C188.16 36.1118 188.529 34.8048 188.529 33.568H183.529C183.529 33.7069 183.509 33.7343 183.525 33.6917C183.533 33.6696 183.549 33.635 183.575 33.5943C183.602 33.5533 183.634 33.5155 183.667 33.4835L187.111 37.1085ZM188.529 33.568C188.529 32.2498 188.075 30.9608 187.007 29.9901L183.644 33.6898C183.629 33.677 183.609 33.6553 183.587 33.6246C183.566 33.5938 183.549 33.5626 183.538 33.5352C183.515 33.4783 183.529 33.4757 183.529 33.568H188.529ZM187.049 30.0297C185.905 28.94 184.359 28.7 183.085 28.7V33.7C183.45 33.7 183.654 33.7387 183.742 33.7638C183.824 33.7872 183.735 33.778 183.601 33.6503L187.049 30.0297ZM183.085 28.7H179.437V33.7H183.085V28.7ZM181.937 31.2V27.232H176.937V31.2H181.937ZM198.436 39.328L199.584 37.1069L198.436 39.328ZM195.428 36.608L193.295 37.9116L193.304 37.9259L193.313 37.94L195.428 36.608ZM195.46 28.448L193.33 27.1398L193.321 27.1535L193.313 27.1673L195.46 28.448ZM198.596 25.6L199.728 27.8289L199.742 27.8218L199.756 27.8146L198.596 25.6ZM207.716 25.536L206.569 27.7571L206.583 27.7647L206.598 27.7721L207.716 25.536ZM210.692 28.256L208.549 29.5422L208.557 29.5565L208.566 29.5706L210.692 28.256ZM210.628 36.512L208.525 35.1601L208.517 35.1735L208.508 35.187L210.628 36.512ZM207.492 39.328L208.61 41.5641L208.617 41.5605L208.624 41.5569L207.492 39.328ZM204.484 36.064L205.984 38.064L205.994 38.057L206.003 38.0499L204.484 36.064ZM205.284 34.816L207.674 35.5512L207.678 35.5387L207.681 35.5262L205.284 34.816ZM205.252 30.24L202.865 30.981V30.981L205.252 30.24ZM204.388 28.864L202.788 30.7846L202.82 30.8115L202.853 30.8374L204.388 28.864ZM201.668 28.8L203.168 30.8L203.207 30.7709L203.245 30.7403L201.668 28.8ZM200.868 30.048L198.497 29.2574L198.487 29.285L198.479 29.3128L200.868 30.048ZM200.9 34.624L198.506 35.3424L198.52 35.391L198.537 35.439L200.9 34.624ZM201.796 36L200.261 37.9734L201.796 36ZM202.884 37.82C201.53 37.82 200.453 37.5562 199.584 37.1069L197.289 41.5491C198.979 42.4225 200.867 42.82 202.884 42.82V37.82ZM199.584 37.1069C198.676 36.6379 198.018 36.0283 197.544 35.276L193.313 37.94C194.29 39.4917 195.637 40.6954 197.289 41.5491L199.584 37.1069ZM197.561 35.3044C197.122 34.5857 196.872 33.7236 196.872 32.64H191.872C191.872 34.543 192.326 36.3263 193.295 37.9116L197.561 35.3044ZM196.872 32.64C196.872 31.4591 197.139 30.5142 197.607 29.7287L193.313 27.1673C192.331 28.8138 191.872 30.6636 191.872 32.64H196.872ZM197.591 29.7562C198.082 28.9559 198.772 28.315 199.728 27.8289L197.464 23.3711C195.733 24.2503 194.332 25.5081 193.33 27.1398L197.591 29.7562ZM199.756 27.8146C200.687 27.3271 201.834 27.044 203.268 27.044V22.044C201.161 22.044 199.194 22.4649 197.436 23.3854L199.756 27.8146ZM203.268 27.044C204.622 27.044 205.699 27.3078 206.569 27.7571L208.864 23.3149C207.173 22.4415 205.285 22.044 203.268 22.044V27.044ZM206.598 27.7721C207.473 28.2097 208.101 28.7958 208.549 29.5422L212.836 26.9698C211.876 25.3695 210.519 24.1423 208.834 23.2999L206.598 27.7721ZM208.566 29.5706C209.02 30.3051 209.28 31.1941 209.28 32.32H214.28C214.28 30.3739 213.815 28.5535 212.819 26.9414L208.566 29.5706ZM209.28 32.32C209.28 33.5032 209.002 34.4182 208.525 35.1601L212.731 37.8639C213.79 36.2164 214.28 34.3368 214.28 32.32H209.28ZM208.508 35.187C208.019 35.969 207.328 36.6073 206.36 37.0991L208.624 41.5569C210.344 40.6834 211.744 39.4443 212.748 37.837L208.508 35.187ZM206.374 37.0919C205.457 37.5507 204.316 37.82 202.884 37.82V42.82C204.951 42.82 206.882 42.428 208.61 41.5641L206.374 37.0919ZM203.204 38.948C204.146 38.948 205.129 38.7055 205.984 38.064L202.984 34.064C203.059 34.0078 203.134 33.9742 203.19 33.9574C203.241 33.942 203.253 33.948 203.204 33.948V38.948ZM206.003 38.0499C206.879 37.3801 207.392 36.4679 207.674 35.5512L202.895 34.0808C202.865 34.1782 202.843 34.2074 202.852 34.1948C202.856 34.188 202.867 34.1717 202.887 34.1497C202.907 34.1275 202.933 34.1027 202.966 34.0781L206.003 38.0499ZM207.681 35.5262C207.945 34.6364 208.04 33.6386 208.04 32.608H203.04C203.04 33.3694 202.965 33.8436 202.887 34.1058L207.681 35.5262ZM208.04 32.608C208.04 31.5056 207.933 30.4432 207.64 29.499L202.865 30.981C202.956 31.2742 203.04 31.7904 203.04 32.608H208.04ZM207.64 29.499C207.346 28.5515 206.825 27.5921 205.923 26.8906L202.853 30.8374C202.791 30.7886 202.769 30.7512 202.775 30.7614C202.784 30.7755 202.821 30.8396 202.865 30.981L207.64 29.499ZM205.989 26.9434C205.088 26.193 204.015 25.884 202.948 25.884V30.884C203.004 30.884 202.997 30.8915 202.95 30.8757C202.927 30.868 202.898 30.8562 202.868 30.8394C202.838 30.8225 202.811 30.8036 202.788 30.7846L205.989 26.9434ZM202.948 25.884C201.961 25.884 200.95 26.1625 200.092 26.8597L203.245 30.7403C203.172 30.7995 203.09 30.8418 203.017 30.8656C202.948 30.8879 202.918 30.884 202.948 30.884V25.884ZM200.168 26.8C199.281 27.4653 198.784 28.3952 198.497 29.2574L203.24 30.8386C203.262 30.7731 203.281 30.7263 203.295 30.6952C203.31 30.6641 203.318 30.6516 203.317 30.6532C203.314 30.6574 203.271 30.723 203.168 30.8L200.168 26.8ZM198.479 29.3128C198.206 30.1981 198.112 31.1987 198.112 32.224H203.112C203.112 31.4573 203.189 31.0072 203.258 30.7832L198.479 29.3128ZM198.112 32.224C198.112 33.3308 198.221 34.3921 198.506 35.3424L203.295 33.9056C203.196 33.5759 203.112 33.0372 203.112 32.224H198.112ZM198.537 35.439C198.855 36.3617 199.384 37.2906 200.261 37.9734L203.331 34.0266C203.441 34.112 203.372 34.1236 203.264 33.809L198.537 35.439ZM200.261 37.9734C201.145 38.6604 202.175 38.948 203.204 38.948V33.948C203.152 33.948 203.155 33.9412 203.194 33.9537C203.213 33.9597 203.237 33.969 203.262 33.9825C203.288 33.996 203.311 34.0112 203.331 34.0266L200.261 37.9734ZM213.197 40L210.841 39.1633L209.656 42.5H213.197V40ZM218.573 24.864V22.364H216.808L216.217 24.0273L218.573 24.864ZM225.517 24.864L227.873 24.0273L227.282 22.364H225.517V24.864ZM230.893 40V42.5H234.434L233.249 39.1633L230.893 40ZM224.941 40L222.527 40.6503L223.026 42.5H224.941V40ZM221.165 25.984V23.484H217.903L218.751 26.6343L221.165 25.984ZM222.285 25.984L224.707 26.6033L225.505 23.484H222.285V25.984ZM218.701 40V42.5H220.642L221.123 40.6193L218.701 40ZM216.749 36.896L214.402 36.0366L213.172 39.396H216.749V36.896ZM218.061 33.312V30.812H216.314L215.714 32.4526L218.061 33.312ZM225.613 33.312L227.904 32.31L227.248 30.812H225.613V33.312ZM227.181 36.896V39.396H231.004L229.472 35.894L227.181 36.896ZM215.553 40.8367L220.929 25.7007L216.217 24.0273L210.841 39.1633L215.553 40.8367ZM218.573 27.364H225.517V22.364H218.573V27.364ZM223.161 25.7007L228.537 40.8367L233.249 39.1633L227.873 24.0273L223.161 25.7007ZM230.893 37.5H224.941V42.5H230.893V37.5ZM227.355 39.3497L223.579 25.3337L218.751 26.6343L222.527 40.6503L227.355 39.3497ZM221.165 28.484H222.285V23.484H221.165V28.484ZM219.863 25.3647L216.279 39.3807L221.123 40.6193L224.707 26.6033L219.863 25.3647ZM218.701 37.5H213.197V42.5H218.701V37.5ZM219.097 37.7554L220.409 34.1714L215.714 32.4526L214.402 36.0366L219.097 37.7554ZM218.061 35.812H225.613V30.812H218.061V35.812ZM223.323 34.314L224.891 37.898L229.472 35.894L227.904 32.31L223.323 34.314ZM227.181 34.396H216.749V39.396H227.181V34.396ZM233.392 40H230.892V42.5H233.392V40ZM233.392 24.864V22.364H230.892V24.864H233.392ZM246 26.176L244.433 28.1244L244.454 28.1412L244.475 28.1576L246 26.176ZM246.736 32.256L244.695 30.8123L244.688 30.8223L246.736 32.256ZM244.112 34.368L245.178 36.6291L245.187 36.6248L245.196 36.6205L244.112 34.368ZM236.336 35.168H233.836V37.668H236.336V35.168ZM236.336 31.616V29.116H233.836V31.616H236.336ZM241.936 28.864L240.289 30.7454L240.352 30.7998L240.417 30.8499L241.936 28.864ZM238.544 28.416V25.916H236.044V28.416H238.544ZM238.544 40V42.5H241.044V40H238.544ZM244.432 40.032L243.534 42.3654L244.432 40.032ZM242.928 38.976L241.082 40.6617L242.928 38.976ZM241.584 36.992L239.379 38.1711L239.383 38.1772L241.584 36.992ZM240.112 34.24L239.392 31.846L236.467 32.7258L237.907 35.4191L240.112 34.24ZM244.048 33.056L246.003 31.4975L244.948 30.1746L243.328 30.662L244.048 33.056ZM245.936 35.424L247.914 33.8954L247.902 33.8803L247.891 33.8655L245.936 35.424ZM246.864 36.544L245.027 38.2397L245.095 38.3132L245.168 38.381L246.864 36.544ZM247.568 37.088L246.354 39.2734L246.401 39.2998L246.45 39.3241L247.568 37.088ZM248.624 37.216L248.27 34.7411L248.241 34.7452L248.213 34.75L248.624 37.216ZM249.04 37.152L251.44 36.4532L250.819 34.3209L248.629 34.686L249.04 37.152ZM249.776 39.68L250.854 41.9353L252.77 41.0194L252.176 38.9812L249.776 39.68ZM248.176 40.192L247.721 37.7338L248.176 40.192ZM235.892 40V24.864H230.892V40H235.892ZM233.392 27.364H241.104V22.364H233.392V27.364ZM241.104 27.364C243.01 27.364 243.978 27.758 244.433 28.1244L247.566 24.2276C245.846 22.8447 243.549 22.364 241.104 22.364V27.364ZM244.475 28.1576C244.999 28.5605 245.164 28.9409 245.164 29.472H250.164C250.164 27.3151 249.219 25.4982 247.524 24.1944L244.475 28.1576ZM245.164 29.472C245.164 29.8885 245.044 30.3192 244.695 30.8123L248.777 33.6997C249.665 32.4435 250.164 31.0181 250.164 29.472H245.164ZM244.688 30.8223C244.386 31.2532 243.88 31.7048 243.027 32.1155L245.196 36.6205C246.647 35.9219 247.891 34.9655 248.784 33.6897L244.688 30.8223ZM243.045 32.1069C242.332 32.4435 241.342 32.668 239.984 32.668V37.668C241.869 37.668 243.63 37.3592 245.178 36.6291L243.045 32.1069ZM239.984 32.668H236.336V37.668H239.984V32.668ZM238.836 35.168V31.616H233.836V35.168H238.836ZM236.336 34.116H240.304V29.116H236.336V34.116ZM240.304 34.116C241.323 34.116 242.469 33.8953 243.439 33.1414L240.369 29.1946C240.416 29.1583 240.458 29.1335 240.491 29.1176C240.523 29.1019 240.542 29.0966 240.542 29.0966C240.542 29.0966 240.541 29.0969 240.538 29.0975C240.536 29.098 240.532 29.0988 240.527 29.0998C240.518 29.1017 240.503 29.1042 240.483 29.1066C240.443 29.1116 240.384 29.116 240.304 29.116V34.116ZM243.439 33.1414C244.438 32.3643 244.98 31.2383 244.98 29.984H239.98C239.98 29.8955 239.999 29.7361 240.088 29.5543C240.176 29.3719 240.292 29.2543 240.369 29.1946L243.439 33.1414ZM244.98 29.984C244.98 28.7615 244.456 27.6437 243.454 26.8781L240.417 30.8499C240.32 30.7758 240.191 30.6423 240.095 30.4443C240 30.2484 239.98 30.078 239.98 29.984H244.98ZM243.582 26.9826C242.603 26.1258 241.392 25.916 240.4 25.916V30.916C240.567 30.916 240.62 30.9352 240.596 30.928C240.563 30.9185 240.437 30.8743 240.289 30.7454L243.582 26.9826ZM240.4 25.916H238.544V30.916H240.4V25.916ZM236.044 28.416V40H241.044V28.416H236.044ZM238.544 37.5H233.392V42.5H238.544V37.5ZM246.48 37.852C245.872 37.852 245.514 37.7697 245.329 37.6986L243.534 42.3654C244.459 42.721 245.467 42.852 246.48 42.852V37.852ZM245.329 37.6986C245.178 37.6404 244.992 37.5286 244.774 37.2903L241.082 40.6617C241.76 41.4048 242.577 41.997 243.534 42.3654L245.329 37.6986ZM244.774 37.2903C244.509 37 244.173 36.5273 243.785 35.8068L239.383 38.1772C239.891 39.1207 240.451 39.9706 241.082 40.6617L244.774 37.2903ZM243.788 35.8129L242.316 33.0609L237.907 35.4191L239.379 38.1711L243.788 35.8129ZM240.832 36.634L244.768 35.45L243.328 30.662L239.392 31.846L240.832 36.634ZM242.093 34.6145L243.981 36.9825L247.891 33.8655L246.003 31.4975L242.093 34.6145ZM243.958 36.9526C244.343 37.4511 244.702 37.8876 245.027 38.2397L248.701 34.8483C248.514 34.6458 248.254 34.3355 247.914 33.8954L243.958 36.9526ZM245.168 38.381C245.503 38.6904 245.907 39.0254 246.354 39.2734L248.782 34.9026C248.826 34.9272 248.826 34.9323 248.776 34.8938C248.73 34.8578 248.658 34.7981 248.559 34.707L245.168 38.381ZM246.45 39.3241C246.969 39.5836 247.562 39.748 248.208 39.748V34.748C248.426 34.748 248.593 34.8057 248.686 34.8519L246.45 39.3241ZM248.208 39.748C248.475 39.748 248.752 39.729 249.035 39.682L248.213 34.75C248.226 34.7477 248.233 34.7473 248.232 34.7474C248.231 34.7474 248.223 34.748 248.208 34.748V39.748ZM248.977 39.6909C249.143 39.6672 249.301 39.643 249.451 39.618L248.629 34.686C248.523 34.7037 248.403 34.7221 248.27 34.7411L248.977 39.6909ZM246.639 37.8508L247.375 40.3788L252.176 38.9812L251.44 36.4532L246.639 37.8508ZM248.697 37.4247C248.419 37.5577 248.097 37.664 247.721 37.7338L248.631 42.6502C249.406 42.5066 250.151 42.2717 250.854 41.9353L248.697 37.4247ZM247.721 37.7338C247.286 37.8142 246.873 37.852 246.48 37.852V42.852C247.195 42.852 247.913 42.7831 248.631 42.6502L247.721 37.7338ZM251.923 40H249.423V42.5H251.923V40ZM251.923 24.864V22.364H249.423V24.864H251.923ZM262.899 25.76L261.897 28.0504L261.918 28.0598L261.94 28.0687L262.899 25.76ZM266.099 28.288L264.025 29.6839L264.041 29.707L264.057 29.7297L266.099 28.288ZM266.067 36.352L263.993 34.9565L263.987 34.9652L266.067 36.352ZM261.043 30.528L258.728 31.4712L258.743 31.5075L258.758 31.5433L261.043 30.528ZM259.923 29.216L258.623 31.3515L258.643 31.3637L258.663 31.3754L259.923 29.216ZM257.267 28.768V26.268H254.767V28.768H257.267ZM257.267 36.096H254.767V38.596H257.267V36.096ZM260.051 35.712L261.248 37.9067L261.286 37.8862L261.323 37.8643L260.051 35.712ZM261.075 34.496L258.787 33.4892L258.77 33.5281L258.754 33.5675L261.075 34.496ZM257.683 37.5H251.923V42.5H257.683V37.5ZM254.423 40V24.864H249.423V40H254.423ZM251.923 27.364H258.067V22.364H251.923V27.364ZM258.067 27.364C259.66 27.364 260.915 27.6208 261.897 28.0504L263.901 23.4696C262.152 22.7045 260.186 22.364 258.067 22.364V27.364ZM261.94 28.0687C262.931 28.4804 263.585 29.0306 264.025 29.6839L268.173 26.8921C267.119 25.3268 265.64 24.1916 263.858 23.4513L261.94 28.0687ZM264.057 29.7297C264.479 30.3279 264.751 31.1249 264.751 32.256H269.751C269.751 30.2724 269.255 28.4241 268.141 26.8463L264.057 29.7297ZM264.751 32.256C264.751 33.3687 264.477 34.2372 263.993 34.9566L268.141 37.7474C269.236 36.1201 269.751 34.258 269.751 32.256H264.751ZM263.987 34.9652C263.513 35.6755 262.806 36.2849 261.749 36.7583L263.793 41.3217C265.594 40.5151 267.085 39.3325 268.147 37.7388L263.987 34.9652ZM261.749 36.7583C260.712 37.2228 259.38 37.5 257.683 37.5V42.5C259.911 42.5 261.971 42.1372 263.793 41.3217L261.749 36.7583ZM263.927 32.576C263.927 31.5224 263.757 30.4781 263.328 29.5127L258.758 31.5433C258.841 31.7299 258.927 32.051 258.927 32.576H263.927ZM263.358 29.5848C262.926 28.525 262.196 27.6474 261.183 27.0566L258.663 31.3754C258.676 31.3827 258.681 31.3872 258.683 31.3885C258.684 31.3896 258.685 31.3902 258.686 31.3912C258.686 31.3922 258.691 31.3971 258.697 31.4082C258.704 31.4195 258.715 31.4396 258.728 31.4712L263.358 29.5848ZM261.223 27.0805C260.22 26.4702 259.086 26.268 258.003 26.268V31.268C258.499 31.268 258.644 31.3644 258.623 31.3515L261.223 27.0805ZM258.003 26.268H257.267V31.268H258.003V26.268ZM254.767 28.768V36.096H259.767V28.768H254.767ZM257.267 38.596H258.259V33.596H257.267V38.596ZM258.259 38.596C259.26 38.596 260.304 38.4218 261.248 37.9067L258.854 33.5173C258.859 33.5142 258.709 33.596 258.259 33.596V38.596ZM261.323 37.8643C262.294 37.2904 262.99 36.4409 263.396 35.4245L258.754 33.5675C258.745 33.5886 258.74 33.5985 258.739 33.6002C258.738 33.6016 258.74 33.5973 258.747 33.5897C258.753 33.5819 258.761 33.5742 258.769 33.5677C258.776 33.5613 258.781 33.5588 258.779 33.5597L261.323 37.8643ZM263.363 35.5028C263.771 34.5763 263.927 33.5756 263.927 32.576H258.927C258.927 33.0698 258.848 33.349 258.787 33.4892L263.363 35.5028Z" fill="#CE6828" mask="url(#path-2-outside-1_2_117)"/>
<defs>
<filter id="filter0_i_2_117" x="66.8062" y="-2.3042" width="219.389" height="66.6701" filterUnits="userSpaceOnUse" color-interpolation-filters="sRGB">
<feFlood flood-opacity="0" result="BackgroundImageFix"/>
<feBlend mode="normal" in="SourceGraphic" in2="BackgroundImageFix" result="shape"/>
<feColorMatrix in="SourceAlpha" type="matrix" values="0 0 0 0 0 0 0 0 0 0 0 0 0 0 0 0 0 0 127 0" result="hardAlpha"/>
<feOffset dx="2" dy="-4"/>
<feGaussianBlur stdDeviation="2"/>
<feComposite in2="hardAlpha" operator="arithmetic" k2="-1" k3="1"/>
<feColorMatrix type="matrix" values="0 0 0 0 0 0 0 0 0 0 0 0 0 0 0 0 0 0 0.25 0"/>
<feBlend mode="plus-darker" in2="shape" result="effect1_innerShadow_2_117"/>
</filter>
<linearGradient id="paint0_linear_2_117" x1="177.431" y1="3.02098" x2="182.009" y2="66.4421" gradientUnits="userSpaceOnUse">
<stop stop-color="#FE9554"/>
<stop offset="1" stop-color="#C97F51"/>
</linearGradient>
</defs>
</svg>
